<svg xmlns="http://www.w3.org/2000/svg" xmlns:xlink="http://www.w3.org/1999/xlink" xmlns:lucid="lucid" width="2492.1" height="1676.67"><g transform="translate(1313.5354379959522 1726.9011655672725)" lucid:page-tab-id="iujAtQRrxlfD"><path d="M235-1449.04a30 30 0 0 1 30-30h770.7a30 30 0 0 1 30 30v1367.8a30 30 0 0 1-30 30H265a30 30 0 0 1-30-30z" stroke="#282c33" stroke-width="2" fill="#edf5ff"/><path d="M235-1565.04a6 6 0 0 1 6-6h267.33a6 6 0 0 1 6 6v68a6 6 0 0 1-6 6H241a6 6 0 0 1-6-6z" fill="#282c33"/><use xlink:href="#a" transform="matrix(1,0,0,1,250.9999651942117,-1550.23536102773) translate(0 32)"/><path d="M380.5-1372.72a30 30 0 0 1 30-30h537.64a30 30 0 0 1 30 30v142.02a30 30 0 0 1-30 30H410.5a30 30 0 0 1-30-30z" stroke="#000" stroke-width="2" fill="#f4d9ff"/><path d="M380.5-1470.05a6 6 0 0 1 6-6h101.7a6 6 0 0 1 6 6v49.33a6 6 0 0 1-6 6H386.5a6 6 0 0 1-6-6z"/><use xlink:href="#b" transform="matrix(1,0,0,1,392.5082676338256,-1460.451722991874) translate(0 25.22222222222222)"/><path d="M380.5-1011.62a30 30 0 0 1 30-30h537.64a30 30 0 0 1 30 30v142.02a30 30 0 0 1-30 30H410.5a30 30 0 0 1-30-30z" stroke="#000" stroke-width="2" fill="#f2f2ff"/><path d="M380.5-1108.95a6 6 0 0 1 6-6h91.34a6 6 0 0 1 6 6v49.33a6 6 0 0 1-6 6H386.5a6 6 0 0 1-6-6z"/><use xlink:href="#c" transform="matrix(1,0,0,1,392.5082676338256,-1099.3489944913367) translate(0 25.22222222222222)"/><path d="M412.7-1227.6h-5.38m-21.46 0h-10.73m-21.46 0h-10.74m-21.46 0h-5.36a6 6 0 0 0-6 6v4.94m0 19.75v9.86m0 19.74v9.87m0 19.75v9.87m0 19.73v9.87m0 19.75v9.87m0 19.74v9.87m0 19.75v9.87m0 19.74v9.86m0 19.75v9.88m0 19.74v9.87m0 19.74v4.93a6 6 0 0 0 6 6h6.2m24.73 0h12.37m24.75 0h6.18" stroke="#1071e5" stroke-width="5" fill="none"/><path d="M415.2-1225.12h-2.58v-4.95h2.57z" stroke="#1071e5" stroke-width=".05" fill="#1071e5"/><path d="M407.1-889.83l-14.27 4.64v-9.26z" stroke="#1071e5" stroke-width="5" fill="#1071e5"/><path d="M380.5-650.5a30 30 0 0 1 30-30h537.64a30 30 0 0 1 30 30v512.36a30 30 0 0 1-30 30H410.5a30 30 0 0 1-30-30z" stroke="#000" stroke-width="2" fill="#e3fae3"/><path d="M380.5-747.85a6 6 0 0 1 6-6h75.87a6 6 0 0 1 6 6v49.34a6 6 0 0 1-6 6H386.5a6 6 0 0 1-6-6z"/><use xlink:href="#d" transform="matrix(1,0,0,1,392.5082676338256,-738.2462659907994) translate(0 25.22222222222222)"/><path d="M686.26-347.32h-4.95v-6.06h4.96zm0-30.3h-4.95v-12.14h4.96zm0-63.46h-4.95v-8.4h4.96zm0-25.2h-4.95v-4.2h4.96z" stroke="#008a0e" stroke-width=".05" fill="#008a0e"/><path d="M686.26-344.82h-4.95v-2.56h4.96z" fill="#008a0e"/><path stroke="#008a0e" stroke-width=".05" fill="#008a0e"/><path d="M688.42-472.98h-9.27l4.63-14.26z" fill="#008a0e"/><path d="M691.82-470.5h-16.08l8.04-24.75zm-9.27-4.95H685l-1.22-3.78z" stroke="#008a0e" stroke-width=".05" fill="#008a0e"/><use xlink:href="#e" transform="matrix(1,0,0,1,526.4243319538384,-430.74289574565597) translate(0 14.222222222222223)"/><use xlink:href="#f" transform="matrix(1,0,0,1,526.4243319538384,-430.74289574565597) translate(46.320987654320994 14.222222222222223)"/><use xlink:href="#g" transform="matrix(1,0,0,1,526.4243319538384,-430.74289574565597) translate(112.49382716049385 14.222222222222223)"/><use xlink:href="#h" transform="matrix(1,0,0,1,526.4243319538384,-430.74289574565597) translate(216.98765432098767 14.222222222222223)"/><use xlink:href="#i" transform="matrix(1,0,0,1,526.4243319538384,-430.74289574565597) translate(259.40740740740745 14.222222222222223)"/><path d="M434.03-313.82a30 30 0 0 1 30-30h439.5a30 30 0 0 1 30 30v142a30 30 0 0 1-30 30h-439.5a30 30 0 0 1-30-30z" stroke="#282c33" stroke-width="2" fill="#cfe4ff"/><path d="M434.03-392.5a6 6 0 0 1 6-6h308.32a6 6 0 0 1 6 6v30.68a6 6 0 0 1-6 6H440.03a6 6 0 0 1-6-6z" fill="#282c33"/><use xlink:href="#j" transform="matrix(1,0,0,1,442.0272245181851,-388.08707857771117) translate(0 17.944444444444443)"/><use xlink:href="#k" transform="matrix(1,0,0,1,442.0272245181851,-388.08707857771117) translate(109.62962962962962 17.944444444444443)"/><use xlink:href="#l" transform="matrix(1,0,0,1,442.0272245181851,-388.08707857771117) translate(156.48148148148147 17.944444444444443)"/><path d="M826.5-187.26c0 6.5-63.9 11.8-142.72 11.8s-142.7-5.3-142.7-11.8v-94.27c0-6.5 63.88-11.8 142.7-11.8s142.72 5.3 142.72 11.8z" stroke="#282c33" stroke-width="2" fill="url(#m)"/><path d="M826.5-281.53c0 6.5-63.9 11.78-142.72 11.78s-142.7-5.27-142.7-11.78" stroke="#282c33" stroke-width="2" fill="none"/><use xlink:href="#n" transform="matrix(1,0,0,1,546.0651382869042,-264.74805734683184) translate(2.25 45.21875)"/><path d="M523.23-513.63c0 3.3-20.97 5.95-46.83 5.95-25.87 0-46.83-2.66-46.83-5.95v-47.58c0-3.3 20.96-5.96 46.83-5.96 25.86 0 46.83 2.66 46.83 5.95z" stroke="#282c33" stroke-width="2" fill="url(#o)"/><path d="M523.23-561.2c0 3.27-20.97 5.94-46.83 5.94-25.87 0-46.83-2.67-46.83-5.95" stroke="#282c33" stroke-width="2" fill="none"/><use xlink:href="#p" transform="matrix(1,0,0,1,434.56731144448844,-550.2633149397972) translate(-1.1944444444444287 23)"/><path d="M768.52-610.14c0 3.28-31.95 5.94-71.36 5.94-39.4 0-71.36-2.66-71.36-5.94v-47.6c0-3.27 31.95-5.94 71.36-5.94 39.4 0 71.36 2.66 71.36 5.95z" stroke="#282c33" stroke-width="2" fill="url(#q)"/><path d="M768.52-657.73c0 3.28-31.95 5.95-71.36 5.95-39.4 0-71.36-2.67-71.36-5.95" stroke="#282c33" stroke-width="2" fill="none"/><use xlink:href="#r" transform="matrix(1,0,0,1,630.8034866871403,-646.7818375537715) translate(1.4210854715202004e-14 23.125)"/><path d="M661.48-513.63c0 3.3-20.96 5.95-46.83 5.95-25.86 0-46.82-2.66-46.82-5.95v-47.58c0-3.3 20.96-5.96 46.82-5.96 25.87 0 46.83 2.66 46.83 5.95z" stroke="#282c33" stroke-width="2" fill="url(#s)"/><path d="M661.48-561.2c0 3.27-20.96 5.94-46.83 5.94-25.86 0-46.82-2.67-46.82-5.95" stroke="#282c33" stroke-width="2" fill="none"/><use xlink:href="#t" transform="matrix(1,0,0,1,572.824616729084,-550.2633149397972) translate(6.000000000000014 23.125)"/><path d="M786.36-513.63c0 3.3-20.97 5.95-46.83 5.95s-46.83-2.66-46.83-5.95v-47.58c0-3.3 20.97-5.96 46.83-5.96s46.83 2.66 46.83 5.95z" stroke="#282c33" stroke-width="2" fill="url(#u)"/><path d="M786.36-561.2c0 3.27-20.97 5.94-46.83 5.94s-46.83-2.67-46.83-5.95" stroke="#282c33" stroke-width="2" fill="none"/><use xlink:href="#v" transform="matrix(1,0,0,1,697.7021827925898,-550.2633149397972) translate(0.47222222222222854 23.125)"/><path d="M911.24-513.63c0 3.3-20.97 5.95-46.83 5.95-25.85 0-46.82-2.66-46.82-5.95v-47.58c0-3.3 20.97-5.96 46.83-5.96 25.87 0 46.84 2.66 46.84 5.95z" stroke="#282c33" stroke-width="2" fill="url(#w)"/><path d="M911.24-561.2c0 3.27-20.97 5.94-46.83 5.94-25.85 0-46.82-2.67-46.82-5.95" stroke="#282c33" stroke-width="2" fill="none"/><use xlink:href="#x" transform="matrix(1,0,0,1,822.5797488560954,-550.2633149397972) translate(-0.11111111111110006 23)"/><path d="M662.98-537.42h12.34" stroke="#3a414a" fill="none"/><path d="M663-536.94h-.52v-.95h.52z" stroke="#3a414a" stroke-width=".05" fill="#3a414a"/><path d="M690.08-537.42l-14.26 4.64v-9.27z" stroke="#3a414a" fill="#3a414a"/><path d="M147.97-1172.05c0 5.58-23.97 10.1-53.52 10.1-29.56 0-53.52-4.52-53.52-10.1v-80.8c0-5.6 23.96-10.1 53.52-10.1 29.55 0 53.52 4.52 53.52 10.1z" stroke="#282c33" stroke-width="2" fill="url(#y)"/><path d="M147.97-1252.86c0 5.58-23.97 10.1-53.52 10.1-29.56 0-53.52-4.52-53.52-10.1" stroke="#282c33" stroke-width="2" fill="none"/><use xlink:href="#z" transform="matrix(1,0,0,1,45.92663429152777,-1237.7556281855739) translate(13.81481481481481 17.77777777777778)"/><use xlink:href="#A" transform="matrix(1,0,0,1,45.92663429152777,-1237.7556281855739) translate(47.148148148148145 17.77777777777778)"/><use xlink:href="#B" transform="matrix(1,0,0,1,45.92663429152777,-1237.7556281855739) translate(23.722222222222225 44.44444444444444)"/><use xlink:href="#C" transform="matrix(1,0,0,1,45.92663429152777,-1237.7556281855739) translate(10.141975308641975 71.11111111111111)"/><path d="M787.86-537.42h12.34" stroke="#3a414a" fill="none"/><path d="M787.87-536.94h-.5v-.95h.5z" stroke="#3a414a" stroke-width=".05" fill="#3a414a"/><path d="M814.96-537.42l-14.26 4.64v-9.27z" stroke="#3a414a" fill="#3a414a"/><path d="M664.8-577.03H514.3v-4.95h150.5zm259.82 0h-150.5v-4.95h150.5z" stroke="#3a414a" stroke-width=".05" fill="#3a414a"/><path d="M519.28-564.5h-4.95v-30h4.95zM924.6-564.5h-4.96v-30h4.95z" stroke="#3a414a" stroke-width=".05" fill="#3a414a"/><use xlink:href="#D" transform="matrix(1,0,0,1,664.7949945681029,-590.1718431002063) translate(0 14.222222222222223)"/><use xlink:href="#E" transform="matrix(1,0,0,1,664.7949945681029,-590.1718431002063) translate(32.44444444444444 14.222222222222223)"/><path d="M524.73-537.42h25.7" stroke="#3a414a" fill="none"/><path d="M524.74-536.94h-.5v-.95h.5z" stroke="#3a414a" stroke-width=".05" fill="#3a414a"/><path d="M565.2-537.42l-14.26 4.64v-9.27z" stroke="#3a414a" fill="#3a414a"/><path d="M156.66-1209.98h-5.2v-4.95h5.2zm24.48 0h-3.7v-4.95h3.7zm112.62-34.82h-5.6l-.63.05-.54.13-.52.2-.47.3-.4.35-.37.42-.3.47-.2.5-.13.55-.05.65v3.7h-4.95v-3.9l.1-1.23.3-1.3.52-1.23.7-1.13.86-1.02 1-.86 1.15-.7 1.22-.5 1.3-.32 1.23-.1h5.78zm34.08 0h-11.36v-4.95h11.36zm34.1 0h-11.37v-4.95h11.36zm28.4 0h-5.7v-4.95h5.7z" stroke="#1071e5" stroke-width=".05" fill="#1071e5"/><path d="M151.53-1209.98h-2.56v-4.95h2.56z" fill="#1071e5"/><path stroke="#1071e5" stroke-width=".05" fill="#1071e5"/><path d="M407.1-1247.28l-14.27 4.64v-9.27z" fill="#1071e5"/><path d="M415.1-1247.28l-24.74 8.04v-16.08zm-19.8 1.23l3.8-1.23-3.8-1.23z" stroke="#1071e5" stroke-width=".05" fill="#1071e5"/><use xlink:href="#F" transform="matrix(1,0,0,1,181.14310493256335,-1228.453301318396) translate(0 21.333333333333336)"/><path d="M509.85-1223.5c0 3.3-20.97 5.96-46.83 5.96-25.87 0-46.83-2.66-46.83-5.95v-47.57c0-3.3 20.95-5.95 46.82-5.95 25.86 0 46.83 2.66 46.83 5.95z" stroke="#282c33" stroke-width="2" fill="url(#G)"/><path d="M509.85-1271.07c0 3.28-20.97 5.95-46.83 5.95-25.87 0-46.83-2.67-46.83-5.95" stroke="#282c33" stroke-width="2" fill="none"/><use xlink:href="#p" transform="matrix(1,0,0,1,421.1875722233985,-1260.123379513503) translate(-1.1944444444444287 23)"/><path d="M764.06-1320c0 3.28-31.95 5.94-71.36 5.94-39.4 0-71.36-2.66-71.36-5.94v-47.6c0-3.28 31.95-5.94 71.36-5.94 39.4 0 71.36 2.66 71.36 5.95z" stroke="#282c33" stroke-width="2" fill="url(#H)"/><path d="M764.06-1367.6c0 3.3-31.95 5.96-71.36 5.96-39.4 0-71.36-2.66-71.36-5.95" stroke="#282c33" stroke-width="2" fill="none"/><use xlink:href="#r" transform="matrix(1,0,0,1,626.3435736134438,-1356.6419021274771) translate(1.4210854715202004e-14 23.125)"/><path d="M657.02-1223.5c0 3.3-20.96 5.96-46.83 5.96-25.87 0-46.84-2.66-46.84-5.95v-47.57c0-3.3 20.97-5.95 46.83-5.95s46.82 2.66 46.82 5.95z" stroke="#282c33" stroke-width="2" fill="url(#I)"/><path d="M657.02-1271.07c0 3.28-20.96 5.95-46.83 5.95-25.87 0-46.84-2.67-46.84-5.95" stroke="#282c33" stroke-width="2" fill="none"/><use xlink:href="#t" transform="matrix(1,0,0,1,568.3647036553875,-1260.123379513503) translate(6.000000000000014 23.125)"/><path d="M781.9-1223.5c0 3.3-20.97 5.96-46.83 5.96s-46.83-2.66-46.83-5.95v-47.57c0-3.3 20.97-5.95 46.83-5.95s46.83 2.66 46.83 5.95z" stroke="#282c33" stroke-width="2" fill="url(#J)"/><path d="M781.9-1271.07c0 3.28-20.97 5.95-46.83 5.95s-46.83-2.67-46.83-5.95" stroke="#282c33" stroke-width="2" fill="none"/><use xlink:href="#v" transform="matrix(1,0,0,1,693.2422697188931,-1260.123379513503) translate(0.47222222222222854 23.125)"/><path d="M906.78-1223.5c0 3.3-20.97 5.96-46.83 5.96s-46.83-2.66-46.83-5.95v-47.57c0-3.3 20.97-5.95 46.83-5.95s46.83 2.66 46.83 5.95z" stroke="#282c33" stroke-width="2" fill="url(#K)"/><path d="M906.78-1271.07c0 3.28-20.97 5.95-46.83 5.95s-46.83-2.67-46.83-5.95" stroke="#282c33" stroke-width="2" fill="none"/><use xlink:href="#x" transform="matrix(1,0,0,1,818.1198357823989,-1260.123379513503) translate(-0.11111111111110006 23)"/><path d="M658.52-1247.28h12.34" stroke="#3a414a" fill="none"/><path d="M658.54-1246.8h-.52v-.95h.52z" stroke="#3a414a" stroke-width=".05" fill="#3a414a"/><path d="M685.62-1247.28l-14.26 4.64v-9.27z" stroke="#3a414a" fill="#3a414a"/><path d="M783.4-1247.28h12.34" stroke="#3a414a" fill="none"/><path d="M783.4-1246.8h-.5v-.95h.5z" stroke="#3a414a" stroke-width=".05" fill="#3a414a"/><path d="M810.5-1247.28l-14.26 4.64v-9.27z" stroke="#3a414a" fill="#3a414a"/><path d="M660.34-1286.9h-150.5v-4.94h150.5zm259.82 0h-150.5v-4.94h150.5z" stroke="#3a414a" stroke-width=".05" fill="#3a414a"/><path d="M514.82-1274.37h-4.95v-30h4.95zM920.13-1274.37h-4.95v-30h4.95z" stroke="#3a414a" stroke-width=".05" fill="#3a414a"/><use xlink:href="#D" transform="matrix(1,0,0,1,660.3350814944063,-1300.0319076739122) translate(0 14.222222222222223)"/><use xlink:href="#E" transform="matrix(1,0,0,1,660.3350814944063,-1300.0319076739122) translate(32.44444444444444 14.222222222222223)"/><path d="M511.35-1247.28h34.63" stroke="#3a414a" fill="none"/><path d="M511.36-1246.8h-.5v-.95h.5z" stroke="#3a414a" stroke-width=".05" fill="#3a414a"/><path d="M560.75-1247.28l-14.27 4.64v-9.27z" stroke="#3a414a" fill="#3a414a"/><path d="M509.85-868.56c0 3.3-20.97 5.95-46.83 5.95-25.87 0-46.83-2.67-46.83-5.96v-47.58c0-3.3 20.95-5.95 46.82-5.95 25.86 0 46.83 2.67 46.83 5.96z" stroke="#282c33" stroke-width="2" fill="url(#L)"/><path d="M509.85-916.14c0 3.28-20.97 5.95-46.83 5.95-25.87 0-46.83-2.66-46.83-5.94" stroke="#282c33" stroke-width="2" fill="none"/><use xlink:href="#p" transform="matrix(1,0,0,1,421.1875722233985,-905.1933472266503) translate(-1.1944444444444287 23)"/><path d="M764.06-965.07c0 3.28-31.95 5.94-71.36 5.94-39.4 0-71.36-2.66-71.36-5.94v-47.6c0-3.28 31.95-5.94 71.36-5.94 39.4 0 71.36 2.65 71.36 5.94z" stroke="#282c33" stroke-width="2" fill="url(#M)"/><path d="M764.06-1012.66c0 3.28-31.95 5.95-71.36 5.95-39.4 0-71.36-2.67-71.36-5.96" stroke="#282c33" stroke-width="2" fill="none"/><use xlink:href="#r" transform="matrix(1,0,0,1,626.3435736134438,-1001.7118698406243) translate(1.4210854715202004e-14 23.125)"/><path d="M657.02-868.56c0 3.3-20.96 5.95-46.83 5.95-25.87 0-46.84-2.67-46.84-5.96v-47.58c0-3.3 20.97-5.95 46.83-5.95s46.82 2.67 46.82 5.96z" stroke="#282c33" stroke-width="2" fill="url(#N)"/><path d="M657.02-916.14c0 3.28-20.96 5.95-46.83 5.95-25.87 0-46.84-2.66-46.84-5.94" stroke="#282c33" stroke-width="2" fill="none"/><use xlink:href="#t" transform="matrix(1,0,0,1,568.3647036553875,-905.1933472266503) translate(6.000000000000014 23.125)"/><path d="M781.9-868.56c0 3.3-20.97 5.95-46.83 5.95s-46.83-2.67-46.83-5.96v-47.58c0-3.3 20.97-5.95 46.83-5.95s46.83 2.67 46.83 5.96z" stroke="#282c33" stroke-width="2" fill="url(#O)"/><path d="M781.9-916.14c0 3.28-20.97 5.95-46.83 5.95s-46.83-2.66-46.83-5.94" stroke="#282c33" stroke-width="2" fill="none"/><use xlink:href="#v" transform="matrix(1,0,0,1,693.2422697188931,-905.1933472266503) translate(0.47222222222222854 23.125)"/><path d="M906.78-868.56c0 3.3-20.97 5.95-46.83 5.95s-46.83-2.67-46.83-5.96v-47.58c0-3.3 20.97-5.95 46.83-5.95s46.83 2.67 46.83 5.96z" stroke="#282c33" stroke-width="2" fill="url(#P)"/><path d="M906.78-916.14c0 3.28-20.97 5.95-46.83 5.95s-46.83-2.66-46.83-5.94" stroke="#282c33" stroke-width="2" fill="none"/><use xlink:href="#x" transform="matrix(1,0,0,1,818.1198357823989,-905.1933472266503) translate(-0.11111111111110006 23)"/><path d="M658.52-892.35h12.34" stroke="#3a414a" fill="none"/><path d="M658.54-891.87h-.52v-.95h.52z" stroke="#3a414a" stroke-width=".05" fill="#3a414a"/><path d="M685.62-892.35l-14.26 4.64V-897z" stroke="#3a414a" fill="#3a414a"/><path d="M783.4-892.35h12.34" stroke="#3a414a" fill="none"/><path d="M783.4-891.87h-.5v-.95h.5z" stroke="#3a414a" stroke-width=".05" fill="#3a414a"/><path d="M810.5-892.35l-14.26 4.64V-897z" stroke="#3a414a" fill="#3a414a"/><path d="M660.34-931.96h-150.5v-4.95h150.5zm259.82 0h-150.5v-4.95h150.5z" stroke="#3a414a" stroke-width=".05" fill="#3a414a"/><path d="M514.82-919.43h-4.95v-30h4.95zM920.13-919.43h-4.95v-30h4.95z" stroke="#3a414a" stroke-width=".05" fill="#3a414a"/><use xlink:href="#D" transform="matrix(1,0,0,1,660.3350814944063,-945.1018753870588) translate(0 14.222222222222223)"/><use xlink:href="#E" transform="matrix(1,0,0,1,660.3350814944063,-945.1018753870588) translate(32.44444444444444 14.222222222222223)"/><path d="M511.35-892.35h34.63" stroke="#3a414a" fill="none"/><path d="M511.36-891.87h-.5v-.95h.5z" stroke="#3a414a" stroke-width=".05" fill="#3a414a"/><path d="M560.75-892.35l-14.27 4.64V-897z" stroke="#3a414a" fill="#3a414a"/><path d="M681.8-684h-4.95v-5.42h4.95zm0-27.04h-4.95v-10.8h4.95zm0-32.43h-4.95v-5.92h4.95zm0-32.44h-4.95v-10.82h4.95zm0-32.44h-4.95v-5.4h4.95z" stroke="#008a0e" stroke-width=".05" fill="#008a0e"/><path d="M681.8-681.5h-4.95v-2.58h4.95z" fill="#008a0e"/><path stroke="#008a0e" stroke-width=".05" fill="#008a0e"/><path d="M683.96-816.24h-9.27l4.62-14.27z" fill="#008a0e"/><path d="M687.36-813.77h-16.08l8.04-24.75zm-9.27-4.95h2.45l-1.23-3.78z" stroke="#008a0e" stroke-width=".05" fill="#008a0e"/><use xlink:href="#Q" transform="matrix(1,0,0,1,476.60639418878384,-770.7232075744014) translate(0 14.222222222222223)"/><use xlink:href="#R" transform="matrix(1,0,0,1,476.60639418878384,-770.7232075744014) translate(46.320987654320994 14.222222222222223)"/><use xlink:href="#S" transform="matrix(1,0,0,1,476.60639418878384,-770.7232075744014) translate(112.49382716049385 14.222222222222223)"/><use xlink:href="#T" transform="matrix(1,0,0,1,476.60639418878384,-770.7232075744014) translate(216.98765432098767 14.222222222222223)"/><use xlink:href="#U" transform="matrix(1,0,0,1,476.60639418878384,-770.7232075744014) translate(263.358024691358 14.222222222222223)"/><use xlink:href="#V" transform="matrix(1,0,0,1,476.60639418878384,-770.7232075744014) translate(303.8024691358025 14.222222222222223)"/><use xlink:href="#i" transform="matrix(1,0,0,1,476.60639418878384,-770.7232075744014) translate(350.1234567901235 14.222222222222223)"/><path d="M681.8-1045.12h-4.95v-5.4h4.95zm0-27.02h-4.95v-10.8h4.95zm0-32.44h-4.95v-10.8h4.95zm0-64.86h-4.95v-5.4h4.95z" stroke="#008a0e" stroke-width=".05" fill="#008a0e"/><path d="M681.8-1042.62h-4.95v-2.56h4.95z" fill="#008a0e"/><path stroke="#008a0e" stroke-width=".05" fill="#008a0e"/><path d="M683.96-1177.35h-9.27l4.62-14.26z" fill="#008a0e"/><path d="M687.36-1174.87h-16.08l8.04-24.75zm-9.27-4.95h2.45l-1.23-3.78z" stroke="#008a0e" stroke-width=".05" fill="#008a0e"/><use xlink:href="#e" transform="matrix(1,0,0,1,433.24836949742576,-1154.5938181494262) translate(0 14.222222222222223)"/><use xlink:href="#f" transform="matrix(1,0,0,1,433.24836949742576,-1154.5938181494262) translate(46.320987654320994 14.222222222222223)"/><use xlink:href="#g" transform="matrix(1,0,0,1,433.24836949742576,-1154.5938181494262) translate(112.49382716049385 14.222222222222223)"/><use xlink:href="#W" transform="matrix(1,0,0,1,433.24836949742576,-1154.5938181494262) translate(216.98765432098767 14.222222222222223)"/><use xlink:href="#X" transform="matrix(1,0,0,1,433.24836949742576,-1154.5938181494262) translate(237.67901234567904 14.222222222222223)"/><use xlink:href="#Y" transform="matrix(1,0,0,1,433.24836949742576,-1154.5938181494262) translate(303.8518518518519 14.222222222222223)"/><use xlink:href="#Z" transform="matrix(1,0,0,1,433.24836949742576,-1154.5938181494262) translate(418.2222222222223 14.222222222222223)"/><path d="M629.12-307.68h-88.05v-4.95h88.05zm197.38 0h-88.05v-4.95h88.05z" stroke="#3a414a" stroke-width=".05" fill="#3a414a"/><path d="M546.04-295.15h-4.95v-30h4.94zM826.48-295.15h-4.96v-30h4.96z" stroke="#3a414a" stroke-width=".05" fill="#3a414a"/><use xlink:href="#D" transform="matrix(1,0,0,1,629.1156899785301,-320.81782650306894) translate(0 14.222222222222223)"/><use xlink:href="#E" transform="matrix(1,0,0,1,629.1156899785301,-320.81782650306894) translate(32.44444444444444 14.222222222222223)"/><path d="M476.87-240.4l.07.87.2.84.34.8.45.75.56.66.65.57.74.46.8.33.83.2.9.07h41.25v.95h-41.3l-1-.08-1-.24-.92-.38-.87-.54-.78-.66-.66-.77-.53-.86-.4-.93-.23-.98-.08-1v-265.8h.95z" stroke="#3a414a" stroke-width=".05" fill="#3a414a"/><path d="M476.4-506.68h.47v.52h-.95v-.54z" fill="#3a414a"/><path stroke="#3a414a" stroke-width=".05" fill="#3a414a"/><path d="M538.45-234.4l-14.27 4.64v-9.27z" fill="#3a414a"/><path d="M539.98-234.4l-16.27 5.3v-10.58zm-15.32 4l12.25-4-12.24-3.98z" stroke="#3a414a" stroke-width=".05" fill="#3a414a"/><path d="M310.1-887.57v5.2m0 20.87v10.43m0 20.86v10.42m0 20.86v10.42m0 20.86v10.43m0 20.85v10.43m0 20.85v10.43m0 20.86v10.43m0 20.86v10.44m0 20.85v10.42m0 20.86v10.43m0 20.87v5.2a6 6 0 0 0 6 6h4.87m19.47 0h9.74m19.46 0h9.74m19.46 0h4.87M307.78-889.83h2.57" stroke="#1071e5" stroke-width="5" fill="none"/><path d="M420.48-537.42l-14.27 4.64v-9.27z" stroke="#1071e5" stroke-width="5" fill="#1071e5"/><path d="M-1118.46-1449.04a30 30 0 0 1 30-30h770.7a30 30 0 0 1 30 30v1367.8a30 30 0 0 1-30 30h-770.7a30 30 0 0 1-30-30z" stroke="#282c33" stroke-width="2" fill="#edf5ff"/><path d="M-1118.46-1565.04a6 6 0 0 1 6-6h267.33a6 6 0 0 1 6 6v68a6 6 0 0 1-6 6h-267.33a6 6 0 0 1-6-6z" fill="#282c33"/><use xlink:href="#a" transform="matrix(1,0,0,1,-1102.4621070932683,-1550.23536102773) translate(0 32)"/><path d="M-972.95-1372.72a30 30 0 0 1 30-30h537.63a30 30 0 0 1 30 30v142.02a30 30 0 0 1-30 30h-537.63a30 30 0 0 1-30-30z" stroke="#000" stroke-width="2" fill="#f4d9ff"/><path d="M-972.95-1470.05a6 6 0 0 1 6-6h101.7a6 6 0 0 1 6 6v49.33a6 6 0 0 1-6 6h-101.7a6 6 0 0 1-6-6z"/><use xlink:href="#b" transform="matrix(1,0,0,1,-960.9538046536543,-1460.451722991874) translate(0 25.22222222222222)"/><path d="M-972.95-1011.62a30 30 0 0 1 30-30h537.63a30 30 0 0 1 30 30v142.02a30 30 0 0 1-30 30h-537.63a30 30 0 0 1-30-30z" stroke="#000" stroke-width="2" fill="#f2f2ff"/><path d="M-972.95-1108.95a6 6 0 0 1 6-6h165.56a6 6 0 0 1 6 6v49.33a6 6 0 0 1-6 6h-165.55a6 6 0 0 1-6-6z"/><use xlink:href="#aa" transform="matrix(1,0,0,1,-960.9538046536543,-1099.3489944913367) translate(0 25.22222222222222)"/><path d="M-940.77-1227.6h-5.37m-21.46 0h-10.73m-21.47 0h-10.73m-21.46 0h-5.36a6 6 0 0 0-6 6v4.94m0 19.75v9.86m0 19.74v9.87m0 19.75v9.87m0 19.73v9.87m0 19.75v9.87m0 19.74v9.87m0 19.75v9.87m0 19.74v9.86m0 19.75v9.88m0 19.74v9.87m0 19.74v4.93a6 6 0 0 0 6 6h6.2m24.73 0h12.37m24.74 0h6.2" stroke="#1071e5" stroke-width="5" fill="none"/><path d="M-938.27-1225.12h-2.57v-4.95h2.57z" stroke="#1071e5" stroke-width=".05" fill="#1071e5"/><path d="M-946.37-889.83l-14.26 4.64v-9.26z" stroke="#1071e5" stroke-width="5" fill="#1071e5"/><path d="M-972.95-650.5a30 30 0 0 1 30-30h537.63a30 30 0 0 1 30 30v512.36a30 30 0 0 1-30 30h-537.63a30 30 0 0 1-30-30z" stroke="#000" stroke-width="2" fill="#e3fae3"/><path d="M-972.95-747.85a6 6 0 0 1 6-6h163.58a6 6 0 0 1 6 6v49.34a6 6 0 0 1-6 6h-163.58a6 6 0 0 1-6-6z"/><use xlink:href="#ab" transform="matrix(1,0,0,1,-960.9538046536543,-738.2462659907994) translate(0 25.22222222222222)"/><path d="M-667.2-347.32h-4.95v-6.06h4.94zm0-30.3h-4.95v-12.14h4.94zm0-63.46h-4.95v-8.4h4.94zm0-25.2h-4.95v-4.2h4.94z" stroke="#008a0e" stroke-width=".05" fill="#008a0e"/><path d="M-667.2-344.82h-4.95v-2.56h4.94z" fill="#008a0e"/><path stroke="#008a0e" stroke-width=".05" fill="#008a0e"/><path d="M-665.04-472.98h-9.28l4.64-14.26z" fill="#008a0e"/><path d="M-661.64-470.5h-16.08l8.04-24.75zm-9.27-4.95h2.45l-1.23-3.78z" stroke="#008a0e" stroke-width=".05" fill="#008a0e"/><use xlink:href="#e" transform="matrix(1,0,0,1,-827.0377403336414,-430.7428957456561) translate(0 14.222222222222223)"/><use xlink:href="#f" transform="matrix(1,0,0,1,-827.0377403336414,-430.7428957456561) translate(46.320987654320994 14.222222222222223)"/><use xlink:href="#g" transform="matrix(1,0,0,1,-827.0377403336414,-430.7428957456561) translate(112.49382716049385 14.222222222222223)"/><use xlink:href="#h" transform="matrix(1,0,0,1,-827.0377403336414,-430.7428957456561) translate(216.98765432098767 14.222222222222223)"/><use xlink:href="#i" transform="matrix(1,0,0,1,-827.0377403336414,-430.7428957456561) translate(259.40740740740745 14.222222222222223)"/><path d="M-919.43-313.82a30 30 0 0 1 30-30h439.5a30 30 0 0 1 30 30v142a30 30 0 0 1-30 30h-439.5a30 30 0 0 1-30-30z" stroke="#282c33" stroke-width="2" fill="#cfe4ff"/><path d="M-919.43-392.5a6 6 0 0 1 6-6h308.32a6 6 0 0 1 6 6v30.68a6 6 0 0 1-6 6h-308.33a6 6 0 0 1-6-6z" fill="#282c33"/><use xlink:href="#j" transform="matrix(1,0,0,1,-911.4348477692947,-388.08707857771117) translate(0 17.944444444444443)"/><use xlink:href="#k" transform="matrix(1,0,0,1,-911.4348477692947,-388.08707857771117) translate(109.62962962962962 17.944444444444443)"/><use xlink:href="#l" transform="matrix(1,0,0,1,-911.4348477692947,-388.08707857771117) translate(156.48148148148147 17.944444444444443)"/><path d="M-526.96-187.26c0 6.5-63.9 11.8-142.72 11.8s-142.72-5.3-142.72-11.8v-94.27c0-6.5 63.9-11.8 142.72-11.8s142.72 5.3 142.72 11.8z" stroke="#282c33" stroke-width="2" fill="url(#ac)"/><path d="M-526.96-281.53c0 6.5-63.9 11.78-142.72 11.78s-142.72-5.27-142.72-11.78" stroke="#282c33" stroke-width="2" fill="none"/><use xlink:href="#n" transform="matrix(1,0,0,1,-807.3969340005756,-264.74805734683184) translate(2.25 45.21875)"/><path d="M-830.24-513.63c0 3.3-20.96 5.95-46.83 5.95-25.86 0-46.82-2.66-46.82-5.95v-47.58c0-3.3 20.97-5.96 46.83-5.96 25.87 0 46.83 2.66 46.83 5.95z" stroke="#282c33" stroke-width="2" fill="url(#ad)"/><path d="M-830.24-561.2c0 3.27-20.96 5.94-46.83 5.94-25.86 0-46.82-2.67-46.82-5.95" stroke="#282c33" stroke-width="2" fill="none"/><use xlink:href="#p" transform="matrix(1,0,0,1,-918.8947608429914,-550.2633149397973) translate(-1.1944444444444287 23)"/><path d="M-584.94-610.14c0 3.28-31.95 5.94-71.36 5.94-39.4 0-71.36-2.66-71.36-5.94v-47.6c0-3.27 31.95-5.94 71.36-5.94 39.4 0 71.36 2.66 71.36 5.95z" stroke="#282c33" stroke-width="2" fill="url(#ae)"/><path d="M-584.94-657.73c0 3.28-31.95 5.95-71.36 5.95-39.4 0-71.36-2.67-71.36-5.95" stroke="#282c33" stroke-width="2" fill="none"/><use xlink:href="#r" transform="matrix(1,0,0,1,-722.6585856003396,-646.7818375537715) translate(1.4210854715202004e-14 23.125)"/><path d="M-691.98-513.63c0 3.3-20.97 5.95-46.83 5.95-25.87 0-46.84-2.66-46.84-5.95v-47.58c0-3.3 20.97-5.96 46.83-5.96 25.85 0 46.82 2.66 46.82 5.95z" stroke="#282c33" stroke-width="2" fill="url(#af)"/><path d="M-691.98-561.2c0 3.27-20.97 5.94-46.83 5.94-25.87 0-46.84-2.67-46.84-5.95" stroke="#282c33" stroke-width="2" fill="none"/><use xlink:href="#t" transform="matrix(1,0,0,1,-780.6374555583959,-550.2633149397973) translate(6.000000000000014 23.125)"/><path d="M-567.1-513.63c0 3.3-20.97 5.95-46.83 5.95s-46.83-2.66-46.83-5.95v-47.58c0-3.3 20.97-5.96 46.83-5.96s46.83 2.66 46.83 5.95z" stroke="#282c33" stroke-width="2" fill="url(#ag)"/><path d="M-567.1-561.2c0 3.27-20.97 5.94-46.83 5.94s-46.83-2.67-46.83-5.95" stroke="#282c33" stroke-width="2" fill="none"/><use xlink:href="#v" transform="matrix(1,0,0,1,-655.7598894948902,-550.2633149397973) translate(0.47222222222222854 23.125)"/><path d="M-442.22-513.63c0 3.3-20.97 5.95-46.83 5.95-25.87 0-46.83-2.66-46.83-5.95v-47.58c0-3.3 20.96-5.96 46.83-5.96 25.86 0 46.83 2.66 46.83 5.95z" stroke="#282c33" stroke-width="2" fill="url(#ah)"/><path d="M-442.22-561.2c0 3.27-20.97 5.94-46.83 5.94-25.87 0-46.83-2.67-46.83-5.95" stroke="#282c33" stroke-width="2" fill="none"/><use xlink:href="#x" transform="matrix(1,0,0,1,-530.8823234313846,-550.2633149397973) translate(-0.11111111111110006 23)"/><path d="M-690.48-537.42h12.34" stroke="#3a414a" fill="none"/><path d="M-690.47-536.94h-.5v-.95h.5z" stroke="#3a414a" stroke-width=".05" fill="#3a414a"/><path d="M-663.38-537.42l-14.26 4.64v-9.27z" stroke="#3a414a" fill="#3a414a"/><path d="M-1205.5-1206.88c0 5.58-23.96 10.1-53.52 10.1-29.55 0-53.52-4.52-53.52-10.1v-80.8c0-5.58 23.97-10.1 53.52-10.1 29.56 0 53.52 4.52 53.52 10.1z" stroke="#282c33" stroke-width="2" fill="url(#ai)"/><path d="M-1205.5-1287.68c0 5.58-23.96 10.1-53.52 10.1-29.55 0-53.52-4.52-53.52-10.1" stroke="#282c33" stroke-width="2" fill="none"/><use xlink:href="#z" transform="matrix(1,0,0,1,-1307.5354379959522,-1272.581002781121) translate(13.81481481481481 17.77777777777778)"/><use xlink:href="#A" transform="matrix(1,0,0,1,-1307.5354379959522,-1272.581002781121) translate(47.148148148148145 17.77777777777778)"/><use xlink:href="#B" transform="matrix(1,0,0,1,-1307.5354379959522,-1272.581002781121) translate(23.722222222222225 44.44444444444444)"/><use xlink:href="#C" transform="matrix(1,0,0,1,-1307.5354379959522,-1272.581002781121) translate(10.141975308641975 71.11111111111111)"/><path d="M-565.6-537.42h12.33" stroke="#3a414a" fill="none"/><path d="M-565.6-536.94h-.5v-.95h.5z" stroke="#3a414a" stroke-width=".05" fill="#3a414a"/><path d="M-538.5-537.42l-14.27 4.64v-9.27z" stroke="#3a414a" fill="#3a414a"/><path d="M-688.67-577.03h-150.5v-4.95h150.5zm259.83 0h-150.5v-4.95h150.5z" stroke="#3a414a" stroke-width=".05" fill="#3a414a"/><path d="M-834.18-564.5h-4.95v-30h4.95zM-428.87-564.5h-4.95v-30h4.95z" stroke="#3a414a" stroke-width=".05" fill="#3a414a"/><use xlink:href="#D" transform="matrix(1,0,0,1,-688.6670777193771,-590.1718431002063) translate(0 14.222222222222223)"/><use xlink:href="#E" transform="matrix(1,0,0,1,-688.6670777193771,-590.1718431002063) translate(32.44444444444444 14.222222222222223)"/><path d="M-828.74-537.42h25.72" stroke="#3a414a" fill="none"/><path d="M-828.72-536.94h-.52v-.95h.52z" stroke="#3a414a" stroke-width=".05" fill="#3a414a"/><path d="M-788.25-537.42l-14.27 4.64v-9.27z" stroke="#3a414a" fill="#3a414a"/><path d="M-1196.56-1244.8h-5.44v-4.95h5.44zm156.75 0h-9.03v-4.95h9.02zm27.05 0h-9.02v-4.95h9.02zm27.07 0h-9.03v-4.95h9.02zm22.55 0h-4.5v-4.95h4.5z" stroke="#1071e5" stroke-width=".05" fill="#1071e5"/><path d="M-1201.93-1244.8h-2.57v-4.95h2.57z" fill="#1071e5"/><path stroke="#1071e5" stroke-width=".05" fill="#1071e5"/><path d="M-946.37-1247.28l-14.26 4.64v-9.27z" fill="#1071e5"/><path d="M-938.36-1247.28l-24.75 8.04v-16.08zm-19.8 1.23l3.78-1.23-3.78-1.23z" stroke="#1071e5" stroke-width=".05" fill="#1071e5"/><use xlink:href="#F" transform="matrix(1,0,0,1,-1182.8751007309038,-1263.278675913943) translate(0 21.333333333333336)"/><path d="M-843.62-1223.5c0 3.3-20.96 5.96-46.83 5.96-25.86 0-46.82-2.66-46.82-5.95v-47.57c0-3.3 20.96-5.95 46.82-5.95 25.87 0 46.83 2.66 46.83 5.95z" stroke="#282c33" stroke-width="2" fill="url(#aj)"/><path d="M-843.62-1271.07c0 3.28-20.96 5.95-46.83 5.95-25.86 0-46.82-2.67-46.82-5.95" stroke="#282c33" stroke-width="2" fill="none"/><use xlink:href="#p" transform="matrix(1,0,0,1,-932.2745000640814,-1260.1233795135029) translate(-1.1944444444444287 23)"/><path d="M-589.4-1320c0 3.28-31.95 5.94-71.36 5.94-39.4 0-71.36-2.66-71.36-5.94v-47.6c0-3.28 31.95-5.94 71.36-5.94 39.4 0 71.36 2.66 71.36 5.95z" stroke="#282c33" stroke-width="2" fill="url(#ak)"/><path d="M-589.4-1367.6c0 3.3-31.95 5.96-71.36 5.96-39.4 0-71.36-2.66-71.36-5.95" stroke="#282c33" stroke-width="2" fill="none"/><use xlink:href="#r" transform="matrix(1,0,0,1,-727.1184986740362,-1356.641902127477) translate(1.4210854715202004e-14 23.125)"/><path d="M-696.44-1223.5c0 3.3-20.96 5.96-46.83 5.96-25.86 0-46.83-2.66-46.83-5.95v-47.57c0-3.3 20.97-5.95 46.83-5.95 25.87 0 46.83 2.66 46.83 5.95z" stroke="#282c33" stroke-width="2" fill="url(#al)"/><path d="M-696.44-1271.07c0 3.28-20.96 5.95-46.83 5.95-25.86 0-46.83-2.67-46.83-5.95" stroke="#282c33" stroke-width="2" fill="none"/><use xlink:href="#t" transform="matrix(1,0,0,1,-785.0973686320925,-1260.1233795135029) translate(6.000000000000014 23.125)"/><path d="M-571.56-1223.5c0 3.3-20.97 5.96-46.83 5.96-25.85 0-46.82-2.66-46.82-5.95v-47.57c0-3.3 20.97-5.95 46.83-5.95 25.87 0 46.84 2.66 46.84 5.95z" stroke="#282c33" stroke-width="2" fill="url(#am)"/><path d="M-571.56-1271.07c0 3.28-20.97 5.95-46.83 5.95-25.85 0-46.82-2.67-46.82-5.95" stroke="#282c33" stroke-width="2" fill="none"/><use xlink:href="#v" transform="matrix(1,0,0,1,-660.2198025685868,-1260.1233795135029) translate(0.47222222222222854 23.125)"/><path d="M-446.68-1223.5c0 3.3-20.97 5.96-46.83 5.96-25.88 0-46.84-2.66-46.84-5.95v-47.57c0-3.3 20.96-5.95 46.83-5.95 25.85 0 46.82 2.66 46.82 5.95z" stroke="#282c33" stroke-width="2" fill="url(#an)"/><path d="M-446.68-1271.07c0 3.28-20.97 5.95-46.83 5.95-25.88 0-46.84-2.67-46.84-5.95" stroke="#282c33" stroke-width="2" fill="none"/><use xlink:href="#x" transform="matrix(1,0,0,1,-535.3422365050812,-1260.1233795135029) translate(-0.11111111111110006 23)"/><path d="M-694.94-1247.28h12.34" stroke="#3a414a" fill="none"/><path d="M-694.93-1246.8h-.5v-.95h.5z" stroke="#3a414a" stroke-width=".05" fill="#3a414a"/><path d="M-667.84-1247.28l-14.26 4.64v-9.27z" stroke="#3a414a" fill="#3a414a"/><path d="M-570.06-1247.28h12.33" stroke="#3a414a" fill="none"/><path d="M-570.05-1246.8h-.5v-.95h.5z" stroke="#3a414a" stroke-width=".05" fill="#3a414a"/><path d="M-542.96-1247.28l-14.27 4.64v-9.27z" stroke="#3a414a" fill="#3a414a"/><path d="M-693.13-1286.9h-150.5v-4.94h150.5zm259.83 0h-150.5v-4.94h150.5z" stroke="#3a414a" stroke-width=".05" fill="#3a414a"/><path d="M-838.64-1274.37h-4.95v-30h4.96zM-433.33-1274.37h-4.95v-30h4.95z" stroke="#3a414a" stroke-width=".05" fill="#3a414a"/><use xlink:href="#D" transform="matrix(1,0,0,1,-693.1269907930738,-1300.0319076739124) translate(0 14.222222222222223)"/><use xlink:href="#E" transform="matrix(1,0,0,1,-693.1269907930738,-1300.0319076739124) translate(32.44444444444444 14.222222222222223)"/><path d="M-842.12-1247.28h34.64" stroke="#3a414a" fill="none"/><path d="M-842.1-1246.8h-.52v-.95h.52z" stroke="#3a414a" stroke-width=".05" fill="#3a414a"/><path d="M-792.7-1247.28l-14.28 4.64v-9.27z" stroke="#3a414a" fill="#3a414a"/><path d="M-843.62-868.56c0 3.3-20.96 5.95-46.83 5.95-25.86 0-46.82-2.67-46.82-5.96v-47.58c0-3.3 20.96-5.95 46.82-5.95 25.87 0 46.83 2.67 46.83 5.96z" stroke="#282c33" stroke-width="2" fill="url(#ao)"/><path d="M-843.62-916.14c0 3.28-20.96 5.95-46.83 5.95-25.86 0-46.82-2.66-46.82-5.94" stroke="#282c33" stroke-width="2" fill="none"/><use xlink:href="#p" transform="matrix(1,0,0,1,-932.2745000640814,-905.1933472266503) translate(-1.1944444444444287 23)"/><path d="M-589.4-965.07c0 3.28-31.95 5.94-71.36 5.94-39.4 0-71.36-2.66-71.36-5.94v-47.6c0-3.28 31.95-5.94 71.36-5.94 39.4 0 71.36 2.65 71.36 5.94z" stroke="#282c33" stroke-width="2" fill="url(#ap)"/><path d="M-589.4-1012.66c0 3.28-31.95 5.95-71.36 5.95-39.4 0-71.36-2.67-71.36-5.96" stroke="#282c33" stroke-width="2" fill="none"/><use xlink:href="#r" transform="matrix(1,0,0,1,-727.1184986740362,-1001.7118698406243) translate(1.4210854715202004e-14 23.125)"/><path d="M-696.44-868.56c0 3.3-20.96 5.95-46.83 5.95-25.86 0-46.83-2.67-46.83-5.96v-47.58c0-3.3 20.97-5.95 46.83-5.95 25.87 0 46.83 2.67 46.83 5.96z" stroke="#282c33" stroke-width="2" fill="url(#aq)"/><path d="M-696.44-916.14c0 3.28-20.96 5.95-46.83 5.95-25.86 0-46.83-2.66-46.83-5.94" stroke="#282c33" stroke-width="2" fill="none"/><use xlink:href="#t" transform="matrix(1,0,0,1,-785.0973686320925,-905.1933472266503) translate(6.000000000000014 23.125)"/><path d="M-571.56-868.56c0 3.3-20.97 5.95-46.83 5.95-25.85 0-46.82-2.67-46.82-5.96v-47.58c0-3.3 20.97-5.95 46.83-5.95 25.87 0 46.84 2.67 46.84 5.96z" stroke="#282c33" stroke-width="2" fill="url(#ar)"/><path d="M-571.56-916.14c0 3.28-20.97 5.95-46.83 5.95-25.85 0-46.82-2.66-46.82-5.94" stroke="#282c33" stroke-width="2" fill="none"/><use xlink:href="#v" transform="matrix(1,0,0,1,-660.2198025685868,-905.1933472266503) translate(0.47222222222222854 23.125)"/><path d="M-446.68-868.56c0 3.3-20.97 5.95-46.83 5.95-25.88 0-46.84-2.67-46.84-5.96v-47.58c0-3.3 20.96-5.95 46.83-5.95 25.85 0 46.82 2.67 46.82 5.96z" stroke="#282c33" stroke-width="2" fill="url(#as)"/><path d="M-446.68-916.14c0 3.28-20.97 5.95-46.83 5.95-25.88 0-46.84-2.66-46.84-5.94" stroke="#282c33" stroke-width="2" fill="none"/><use xlink:href="#x" transform="matrix(1,0,0,1,-535.3422365050812,-905.1933472266503) translate(-0.11111111111110006 23)"/><path d="M-694.94-892.35h12.34" stroke="#3a414a" fill="none"/><path d="M-694.93-891.87h-.5v-.95h.5z" stroke="#3a414a" stroke-width=".05" fill="#3a414a"/><path d="M-667.84-892.35l-14.26 4.64V-897z" stroke="#3a414a" fill="#3a414a"/><path d="M-570.06-892.35h12.33" stroke="#3a414a" fill="none"/><path d="M-570.05-891.87h-.5v-.95h.5z" stroke="#3a414a" stroke-width=".05" fill="#3a414a"/><path d="M-542.96-892.35l-14.27 4.64V-897z" stroke="#3a414a" fill="#3a414a"/><path d="M-693.13-931.96h-150.5v-4.95h150.5zm259.83 0h-150.5v-4.95h150.5z" stroke="#3a414a" stroke-width=".05" fill="#3a414a"/><path d="M-838.64-919.43h-4.95v-30h4.96zM-433.33-919.43h-4.95v-30h4.95z" stroke="#3a414a" stroke-width=".05" fill="#3a414a"/><g><use xlink:href="#D" transform="matrix(1,0,0,1,-693.1269907930738,-945.101875387059) translate(0 14.222222222222223)"/><use xlink:href="#E" transform="matrix(1,0,0,1,-693.1269907930738,-945.101875387059) translate(32.44444444444444 14.222222222222223)"/></g><path d="M-842.12-892.35h34.64" stroke="#3a414a" fill="none"/><path d="M-842.1-891.87h-.52v-.95h.52z" stroke="#3a414a" stroke-width=".05" fill="#3a414a"/><path d="M-792.7-892.35L-807-887.7V-897z" stroke="#3a414a" fill="#3a414a"/><path d="M-671.66-684h-4.96v-5.42h4.96zm0-27.04h-4.96v-10.8h4.96zm0-32.43h-4.96v-5.92h4.96zm0-32.44h-4.96v-10.82h4.96zm0-32.44h-4.96v-5.4h4.96z" stroke="#008a0e" stroke-width=".05" fill="#008a0e"/><path d="M-671.66-681.5h-4.96v-2.58h4.96z" fill="#008a0e"/><path stroke="#008a0e" stroke-width=".05" fill="#008a0e"/><path d="M-669.5-816.24h-9.27l4.63-14.27z" fill="#008a0e"/><path d="M-666.1-813.77h-16.08l8.04-24.75zm-9.27-4.95h2.46l-1.24-3.78z" stroke="#008a0e" stroke-width=".05" fill="#008a0e"/><g><use xlink:href="#Q" transform="matrix(1,0,0,1,-876.8556780986961,-770.7232075744014) translate(0 14.222222222222223)"/><use xlink:href="#R" transform="matrix(1,0,0,1,-876.8556780986961,-770.7232075744014) translate(46.320987654320994 14.222222222222223)"/><use xlink:href="#S" transform="matrix(1,0,0,1,-876.8556780986961,-770.7232075744014) translate(112.49382716049385 14.222222222222223)"/><use xlink:href="#T" transform="matrix(1,0,0,1,-876.8556780986961,-770.7232075744014) translate(216.98765432098767 14.222222222222223)"/><use xlink:href="#U" transform="matrix(1,0,0,1,-876.8556780986961,-770.7232075744014) translate(263.358024691358 14.222222222222223)"/><use xlink:href="#V" transform="matrix(1,0,0,1,-876.8556780986961,-770.7232075744014) translate(303.8024691358025 14.222222222222223)"/><use xlink:href="#i" transform="matrix(1,0,0,1,-876.8556780986961,-770.7232075744014) translate(350.1234567901235 14.222222222222223)"/></g><path d="M-671.66-1045.12h-4.96v-5.4h4.96zm0-27.02h-4.96v-10.8h4.96zm0-32.44h-4.96v-10.8h4.96zm0-64.86h-4.96v-5.4h4.96z" stroke="#008a0e" stroke-width=".05" fill="#008a0e"/><path d="M-671.66-1042.62h-4.96v-2.56h4.96z" fill="#008a0e"/><path stroke="#008a0e" stroke-width=".05" fill="#008a0e"/><path d="M-669.5-1177.35h-9.27l4.63-14.26z" fill="#008a0e"/><path d="M-666.1-1174.87h-16.08l8.04-24.75zm-9.27-4.95h2.46l-1.24-3.78z" stroke="#008a0e" stroke-width=".05" fill="#008a0e"/><g><use xlink:href="#e" transform="matrix(1,0,0,1,-920.2137027900542,-1154.5938181494262) translate(0 14.222222222222223)"/><use xlink:href="#f" transform="matrix(1,0,0,1,-920.2137027900542,-1154.5938181494262) translate(46.320987654320994 14.222222222222223)"/><use xlink:href="#g" transform="matrix(1,0,0,1,-920.2137027900542,-1154.5938181494262) translate(112.49382716049385 14.222222222222223)"/><use xlink:href="#W" transform="matrix(1,0,0,1,-920.2137027900542,-1154.5938181494262) translate(216.98765432098767 14.222222222222223)"/><use xlink:href="#X" transform="matrix(1,0,0,1,-920.2137027900542,-1154.5938181494262) translate(237.67901234567904 14.222222222222223)"/><use xlink:href="#Y" transform="matrix(1,0,0,1,-920.2137027900542,-1154.5938181494262) translate(303.8518518518519 14.222222222222223)"/><use xlink:href="#Z" transform="matrix(1,0,0,1,-920.2137027900542,-1154.5938181494262) translate(418.2222222222223 14.222222222222223)"/></g><path d="M-724.35-307.68h-88.05v-4.95h88.05zm197.4 0h-88.06v-4.95h88.04z" stroke="#3a414a" stroke-width=".05" fill="#3a414a"/><path d="M-807.42-295.15h-4.95v-30h4.95zM-527-295.15h-4.94v-30h4.95z" stroke="#3a414a" stroke-width=".05" fill="#3a414a"/><g><use xlink:href="#D" transform="matrix(1,0,0,1,-724.34638230895,-320.81782650306917) translate(0 14.222222222222223)"/><use xlink:href="#E" transform="matrix(1,0,0,1,-724.34638230895,-320.81782650306917) translate(32.44444444444444 14.222222222222223)"/></g><path d="M-876.6-240.4l.08.87.2.84.33.8.47.75.56.66.66.57.73.46.8.33.84.2.88.07h41.27v.95h-41.3l-1-.08-1-.24-.93-.38-.87-.54-.77-.66-.66-.77-.54-.86-.38-.93-.24-.98-.08-1v-265.8h.95z" stroke="#3a414a" stroke-width=".05" fill="#3a414a"/><path d="M-877.07-506.68h.48v.52h-.94v-.54z" fill="#3a414a"/><path stroke="#3a414a" stroke-width=".05" fill="#3a414a"/><path d="M-815-234.4l-14.28 4.64v-9.27z" fill="#3a414a"/><path d="M-813.48-234.4l-16.28 5.3v-10.58zm-15.33 4l12.25-4-12.26-3.98z" stroke="#3a414a" stroke-width=".05" fill="#3a414a"/><path d="M-1043.36-887.57v5.2m0 20.87v10.43m0 20.86v10.42m0 20.86v10.42m0 20.86v10.43m0 20.85v10.43m0 20.85v10.43m0 20.86v10.43m0 20.86v10.44m0 20.85v10.42m0 20.86v10.43m0 20.87v5.2a6 6 0 0 0 6 6h4.87m19.48 0h9.73m19.48 0h9.73m19.48 0h4.87M-1045.68-889.83h2.57" stroke="#1071e5" stroke-width="5" fill="none"/><path d="M-933-537.42l-14.25 4.64v-9.27z" stroke="#1071e5" stroke-width="5" fill="#1071e5"/><path d="M-1160.84-1720.9a6 6 0 0 1 6-6H-58a6 6 0 0 1 6 6v136.74a6 6 0 0 1-6 6h-1096.84a6 6 0 0 1-6-6z" fill="none"/><g><use xlink:href="#at" transform="matrix(1,0,0,1,-1160.8376906357296,-1726.9011655672725) translate(25.611111111111086 106.66666666666669)"/><use xlink:href="#au" transform="matrix(1,0,0,1,-1160.8376906357296,-1726.9011655672725) translate(350.7962962962963 106.66666666666669)"/><use xlink:href="#av" transform="matrix(1,0,0,1,-1160.8376906357296,-1726.9011655672725) translate(772.2777777777778 106.66666666666669)"/></g><path d="M69.72-1720.9a6 6 0 0 1 6-6h1096.84a6 6 0 0 1 6 6v136.74a6 6 0 0 1-6 6H75.72a6 6 0 0 1-6-6z" fill="none"/><g><use xlink:href="#aw" transform="matrix(1,0,0,1,69.71829543587182,-1726.9011655672725) translate(188.2037037037037 106.66666666666669)"/><use xlink:href="#av" transform="matrix(1,0,0,1,69.71829543587182,-1726.9011655672725) translate(609.6851851851852 106.66666666666669)"/></g><defs><path fill="#fff" d="M175 0L67-191c6 58 2 128 3 191H24v-248h59L193-55c-6-58-2-129-3-193h46V0h-61" id="ax"/><path fill="#fff" d="M140-251c80 0 125 45 125 126S219 4 139 4C58 4 15-44 15-125s44-126 125-126zm-1 214c52 0 73-35 73-88 0-50-21-86-72-86-52 0-73 35-73 86s22 88 72 88" id="ay"/><path fill="#fff" d="M240-174c0 40-23 61-54 70L253 0h-59l-57-94H76V0H24v-248c93 4 217-23 216 74zM76-134c48-2 112 12 112-38 0-48-66-32-112-35v73" id="az"/><path fill="#fff" d="M136-208V0H84v-208H4v-40h212v40h-80" id="aA"/><path fill="#fff" d="M186 0v-106H76V0H24v-248h52v99h110v-99h50V0h-50" id="aB"/><path fill="#fff" d="M169-182c-1-43-94-46-97-3 18 66 151 10 154 114 3 95-165 93-204 36-6-8-10-19-12-30l50-8c3 46 112 56 116 5-17-69-150-10-154-114-4-87 153-88 188-35 5 8 8 18 10 28" id="aC"/><path fill="#fff" d="M199 0l-22-63H83L61 0H9l90-248h61L250 0h-51zm-33-102l-36-108c-10 38-24 72-36 108h72" id="aD"/><g id="a"><use transform="matrix(0.1111111111111111,0,0,0.1111111111111111,0,0)" xlink:href="#ax"/><use transform="matrix(0.1111111111111111,0,0,0.1111111111111111,28.777777777777775,0)" xlink:href="#ay"/><use transform="matrix(0.1111111111111111,0,0,0.1111111111111111,59.888888888888886,0)" xlink:href="#az"/><use transform="matrix(0.1111111111111111,0,0,0.1111111111111111,88.66666666666666,0)" xlink:href="#aA"/><use transform="matrix(0.1111111111111111,0,0,0.1111111111111111,112.99999999999999,0)" xlink:href="#aB"/><use transform="matrix(0.1111111111111111,0,0,0.1111111111111111,141.77777777777777,0)" xlink:href="#aC"/><use transform="matrix(0.1111111111111111,0,0,0.1111111111111111,168.44444444444443,0)" xlink:href="#aA"/><use transform="matrix(0.1111111111111111,0,0,0.1111111111111111,189.77777777777777,0)" xlink:href="#aD"/><use transform="matrix(0.1111111111111111,0,0,0.1111111111111111,218.55555555555554,0)" xlink:href="#az"/></g><path fill="#fff" d="M24-248c93 1 206-16 204 79-1 75-69 88-152 82V0H24v-248zm52 121c47 0 100 7 100-41 0-47-54-39-100-39v80" id="aE"/><path fill="#fff" d="M24-248c120-7 223 5 221 122C244-46 201 0 124 0H24v-248zM76-40c74 7 117-18 117-86 0-67-45-88-117-82v168" id="aF"/><g id="b"><use transform="matrix(0.08641975308641976,0,0,0.08641975308641976,0,0)" xlink:href="#aE"/><use transform="matrix(0.08641975308641976,0,0,0.08641975308641976,20.740740740740744,0)" xlink:href="#az"/><use transform="matrix(0.08641975308641976,0,0,0.08641975308641976,43.12345679012346,0)" xlink:href="#ay"/><use transform="matrix(0.08641975308641976,0,0,0.08641975308641976,67.32098765432099,0)" xlink:href="#aF"/></g><path fill="#fff" d="M24 0v-248h195v40H76v63h132v40H76v65h150V0H24" id="aG"/><g id="c"><use transform="matrix(0.08641975308641976,0,0,0.08641975308641976,0,0)" xlink:href="#aA"/><use transform="matrix(0.08641975308641976,0,0,0.08641975308641976,18.925925925925927,0)" xlink:href="#aG"/><use transform="matrix(0.08641975308641976,0,0,0.08641975308641976,39.66666666666667,0)" xlink:href="#aC"/><use transform="matrix(0.08641975308641976,0,0,0.08641975308641976,60.407407407407426,0)" xlink:href="#aA"/></g><path fill="#fff" d="M147 0H94L2-248h55l64 206c17-72 42-137 63-206h54" id="aH"/><g id="d"><use transform="matrix(0.08641975308641976,0,0,0.08641975308641976,0,0)" xlink:href="#aF"/><use transform="matrix(0.08641975308641976,0,0,0.08641975308641976,22.38271604938272,0)" xlink:href="#aG"/><use transform="matrix(0.08641975308641976,0,0,0.08641975308641976,43.12345679012346,0)" xlink:href="#aH"/></g><path fill="#3a414a" d="M190-63c-7 42-38 67-86 67-59 0-84-38-90-98-12-110 154-137 174-36l-49 2c-2-19-15-32-35-32-30 0-35 28-38 64-6 74 65 87 74 30" id="aI"/><path fill="#3a414a" d="M110-194c64 0 96 36 96 99 0 64-35 99-97 99-61 0-95-36-95-99 0-62 34-99 96-99zm-1 164c35 0 45-28 45-65 0-40-10-65-43-65-34 0-45 26-45 65 0 36 10 65 43 65" id="aJ"/><path fill="#3a414a" d="M88-194c31-1 46 15 58 34l-1-101h50l1 261h-48c-2-10 0-23-3-31C134-8 116 4 84 4 32 4 16-41 15-95c0-56 19-97 73-99zm17 164c33 0 40-30 41-66 1-37-9-64-41-64s-38 30-39 65c0 43 13 65 39 65" id="aK"/><path fill="#3a414a" d="M185-48c-13 30-37 53-82 52C43 2 14-33 14-96s30-98 90-98c62 0 83 45 84 108H66c0 31 8 55 39 56 18 0 30-7 34-22zm-45-69c5-46-57-63-70-21-2 6-4 13-4 21h74" id="aL"/><g id="e"><use transform="matrix(0.04938271604938272,0,0,0.04938271604938272,0,0)" xlink:href="#aI"/><use transform="matrix(0.04938271604938272,0,0,0.04938271604938272,9.876543209876544,0)" xlink:href="#aJ"/><use transform="matrix(0.04938271604938272,0,0,0.04938271604938272,20.69135802469136,0)" xlink:href="#aK"/><use transform="matrix(0.04938271604938272,0,0,0.04938271604938272,31.506172839506174,0)" xlink:href="#aL"/></g><path fill="#3a414a" d="M135-150c-39-12-60 13-60 57V0H25l-1-190h47c2 13-1 29 3 40 6-28 27-53 61-41v41" id="aM"/><path fill="#3a414a" d="M25 0v-261h50V0H25" id="aN"/><path fill="#3a414a" d="M133-34C117-15 103 5 69 4 32 3 11-16 11-54c-1-60 55-63 116-61 1-26-3-47-28-47-18 1-26 9-28 27l-52-2c7-38 36-58 82-57s74 22 75 68l1 82c-1 14 12 18 25 15v27c-30 8-71 5-69-32zm-48 3c29 0 43-24 42-57-32 0-66-3-65 30 0 17 8 27 23 27" id="aO"/><path fill="#3a414a" d="M137-138c1-29-70-34-71-4 15 46 118 7 119 86 1 83-164 76-172 9l43-7c4 19 20 25 44 25 33 8 57-30 24-41C81-84 22-81 20-136c-2-80 154-74 161-7" id="aP"/><g id="f"><use transform="matrix(0.04938271604938272,0,0,0.04938271604938272,0,0)" xlink:href="#aM"/><use transform="matrix(0.04938271604938272,0,0,0.04938271604938272,6.913580246913581,0)" xlink:href="#aL"/><use transform="matrix(0.04938271604938272,0,0,0.04938271604938272,16.790123456790127,0)" xlink:href="#aN"/><use transform="matrix(0.04938271604938272,0,0,0.04938271604938272,21.7283950617284,0)" xlink:href="#aL"/><use transform="matrix(0.04938271604938272,0,0,0.04938271604938272,31.60493827160494,0)" xlink:href="#aO"/><use transform="matrix(0.04938271604938272,0,0,0.04938271604938272,41.48148148148149,0)" xlink:href="#aP"/><use transform="matrix(0.04938271604938272,0,0,0.04938271604938272,51.35802469135803,0)" xlink:href="#aL"/></g><path fill="#333" d="M195-6C206 82 75 100 31 46c-4-6-6-13-8-21l49-6c3 16 16 24 34 25 40 0 42-37 40-79-11 22-30 35-61 35-53 0-70-43-70-97 0-56 18-96 73-97 30 0 46 14 59 34l2-30h47zm-90-29c32 0 41-27 41-63 0-35-9-62-40-62-32 0-39 29-40 63 0 36 9 62 39 62" id="aQ"/><path fill="#333" d="M133-34C117-15 103 5 69 4 32 3 11-16 11-54c-1-60 55-63 116-61 1-26-3-47-28-47-18 1-26 9-28 27l-52-2c7-38 36-58 82-57s74 22 75 68l1 82c-1 14 12 18 25 15v27c-30 8-71 5-69-32zm-48 3c29 0 43-24 42-57-32 0-66-3-65 30 0 17 8 27 23 27" id="aR"/><path fill="#333" d="M115-3C79 11 28 4 28-45v-112H4v-33h27l15-45h31v45h36v33H77v99c-1 23 16 31 38 25v30" id="aS"/><path fill="#333" d="M185-48c-13 30-37 53-82 52C43 2 14-33 14-96s30-98 90-98c62 0 83 45 84 108H66c0 31 8 55 39 56 18 0 30-7 34-22zm-45-69c5-46-57-63-70-21-2 6-4 13-4 21h74" id="aT"/><path fill="#333" d="M147 0L96-86 75-71V0H25v-261h50v150l67-79h53l-66 74L201 0h-54" id="aU"/><path fill="#333" d="M135-194c53 0 70 44 70 98 0 56-19 98-73 100-31 1-45-17-59-34 3 33 2 69 2 105H25l-1-265h48c2 10 0 23 3 31 11-24 29-35 60-35zM114-30c33 0 39-31 40-66 0-38-9-64-40-64-56 0-55 130 0 130" id="aV"/><path fill="#333" d="M135-150c-39-12-60 13-60 57V0H25l-1-190h47c2 13-1 29 3 40 6-28 27-53 61-41v41" id="aW"/><path fill="#333" d="M35-132v-50h50v50H35zM35 0v-49h50V0H35" id="aX"/><g id="g"><use transform="matrix(0.04938271604938272,0,0,0.04938271604938272,0,0)" xlink:href="#aQ"/><use transform="matrix(0.04938271604938272,0,0,0.04938271604938272,10.814814814814815,0)" xlink:href="#aR"/><use transform="matrix(0.04938271604938272,0,0,0.04938271604938272,20.69135802469136,0)" xlink:href="#aS"/><use transform="matrix(0.04938271604938272,0,0,0.04938271604938272,26.567901234567902,0)" xlink:href="#aT"/><use transform="matrix(0.04938271604938272,0,0,0.04938271604938272,36.44444444444445,0)" xlink:href="#aU"/><use transform="matrix(0.04938271604938272,0,0,0.04938271604938272,46.320987654320994,0)" xlink:href="#aT"/><use transform="matrix(0.04938271604938272,0,0,0.04938271604938272,56.19753086419754,0)" xlink:href="#aT"/><use transform="matrix(0.04938271604938272,0,0,0.04938271604938272,66.07407407407408,0)" xlink:href="#aV"/><use transform="matrix(0.04938271604938272,0,0,0.04938271604938272,76.88888888888889,0)" xlink:href="#aT"/><use transform="matrix(0.04938271604938272,0,0,0.04938271604938272,86.76543209876543,0)" xlink:href="#aW"/><use transform="matrix(0.04938271604938272,0,0,0.04938271604938272,93.67901234567901,0)" xlink:href="#aX"/></g><g id="h"><use transform="matrix(0.04938271604938272,0,0,0.04938271604938272,0,0)" xlink:href="#aV"/><use transform="matrix(0.04938271604938272,0,0,0.04938271604938272,10.814814814814815,0)" xlink:href="#aT"/><use transform="matrix(0.04938271604938272,0,0,0.04938271604938272,20.69135802469136,0)" xlink:href="#aT"/><use transform="matrix(0.04938271604938272,0,0,0.04938271604938272,30.567901234567906,0)" xlink:href="#aW"/></g><path fill="#333" d="M128 0H69L1-190h53L99-40l48-150h52" id="aY"/><path fill="#333" d="M25-224v-37h50v37H25zM25 0v-190h50V0H25" id="aZ"/><path fill="#333" d="M231 0h-52l-39-155L100 0H48L-1-190h46L77-45c9-52 24-97 36-145h53l37 145 32-145h46" id="ba"/><g id="i"><use transform="matrix(0.04938271604938272,0,0,0.04938271604938272,0,0)" xlink:href="#aW"/><use transform="matrix(0.04938271604938272,0,0,0.04938271604938272,6.913580246913581,0)" xlink:href="#aT"/><use transform="matrix(0.04938271604938272,0,0,0.04938271604938272,16.790123456790127,0)" xlink:href="#aY"/><use transform="matrix(0.04938271604938272,0,0,0.04938271604938272,26.666666666666668,0)" xlink:href="#aZ"/><use transform="matrix(0.04938271604938272,0,0,0.04938271604938272,31.60493827160494,0)" xlink:href="#aT"/><use transform="matrix(0.04938271604938272,0,0,0.04938271604938272,41.48148148148149,0)" xlink:href="#ba"/></g><path fill="#fff" d="M24 0v-248h52V0H24" id="bb"/><path fill="#fff" d="M135-194c87-1 58 113 63 194h-50c-7-57 23-157-34-157-59 0-34 97-39 157H25l-1-190h47c2 12-1 28 3 38 12-26 28-41 61-42" id="bc"/><path fill="#fff" d="M88-194c31-1 46 15 58 34l-1-101h50l1 261h-48c-2-10 0-23-3-31C134-8 116 4 84 4 32 4 16-41 15-95c0-56 19-97 73-99zm17 164c33 0 40-30 41-66 1-37-9-64-41-64s-38 30-39 65c0 43 13 65 39 65" id="bd"/><path fill="#fff" d="M25-224v-37h50v37H25zM25 0v-190h50V0H25" id="be"/><path fill="#fff" d="M128 0H69L1-190h53L99-40l48-150h52" id="bf"/><path fill="#fff" d="M85 4C-2 5 27-109 22-190h50c7 57-23 150 33 157 60-5 35-97 40-157h50l1 190h-47c-2-12 1-28-3-38-12 25-28 42-61 42" id="bg"/><path fill="#fff" d="M133-34C117-15 103 5 69 4 32 3 11-16 11-54c-1-60 55-63 116-61 1-26-3-47-28-47-18 1-26 9-28 27l-52-2c7-38 36-58 82-57s74 22 75 68l1 82c-1 14 12 18 25 15v27c-30 8-71 5-69-32zm-48 3c29 0 43-24 42-57-32 0-66-3-65 30 0 17 8 27 23 27" id="bh"/><path fill="#fff" d="M25 0v-261h50V0H25" id="bi"/><g id="j"><use transform="matrix(0.06172839506172839,0,0,0.06172839506172839,0,0)" xlink:href="#bb"/><use transform="matrix(0.06172839506172839,0,0,0.06172839506172839,6.172839506172839,0)" xlink:href="#bc"/><use transform="matrix(0.06172839506172839,0,0,0.06172839506172839,19.691358024691358,0)" xlink:href="#bd"/><use transform="matrix(0.06172839506172839,0,0,0.06172839506172839,33.20987654320987,0)" xlink:href="#be"/><use transform="matrix(0.06172839506172839,0,0,0.06172839506172839,39.382716049382715,0)" xlink:href="#bf"/><use transform="matrix(0.06172839506172839,0,0,0.06172839506172839,51.72839506172839,0)" xlink:href="#be"/><use transform="matrix(0.06172839506172839,0,0,0.06172839506172839,57.901234567901234,0)" xlink:href="#bd"/><use transform="matrix(0.06172839506172839,0,0,0.06172839506172839,71.41975308641975,0)" xlink:href="#bg"/><use transform="matrix(0.06172839506172839,0,0,0.06172839506172839,84.93827160493827,0)" xlink:href="#bh"/><use transform="matrix(0.06172839506172839,0,0,0.06172839506172839,97.28395061728395,0)" xlink:href="#bi"/></g><path fill="#fff" d="M185-48c-13 30-37 53-82 52C43 2 14-33 14-96s30-98 90-98c62 0 83 45 84 108H66c0 31 8 55 39 56 18 0 30-7 34-22zm-45-69c5-46-57-63-70-21-2 6-4 13-4 21h74" id="bj"/><g id="k"><use transform="matrix(0.06172839506172839,0,0,0.06172839506172839,0,0)" xlink:href="#aF"/><use transform="matrix(0.06172839506172839,0,0,0.06172839506172839,15.987654320987653,0)" xlink:href="#bj"/><use transform="matrix(0.06172839506172839,0,0,0.06172839506172839,28.333333333333332,0)" xlink:href="#bf"/></g><path fill="#fff" d="M135-150c-39-12-60 13-60 57V0H25l-1-190h47c2 13-1 29 3 40 6-28 27-53 61-41v41" id="bk"/><path fill="#fff" d="M110-194c64 0 96 36 96 99 0 64-35 99-97 99-61 0-95-36-95-99 0-62 34-99 96-99zm-1 164c35 0 45-28 45-65 0-40-10-65-43-65-34 0-45 26-45 65 0 36 10 65 43 65" id="bl"/><path fill="#fff" d="M220-157c-53 9-28 100-34 157h-49v-107c1-27-5-49-29-50C55-147 81-57 75 0H25l-1-190h47c2 12-1 28 3 38 10-53 101-56 108 0 13-22 24-43 59-42 82 1 51 116 57 194h-49v-107c-1-25-5-48-29-50" id="bm"/><path fill="#fff" d="M115-3C79 11 28 4 28-45v-112H4v-33h27l15-45h31v45h36v33H77v99c-1 23 16 31 38 25v30" id="bn"/><path fill="#fff" d="M137-138c1-29-70-34-71-4 15 46 118 7 119 86 1 83-164 76-172 9l43-7c4 19 20 25 44 25 33 8 57-30 24-41C81-84 22-81 20-136c-2-80 154-74 161-7" id="bo"/><g id="l"><use transform="matrix(0.06172839506172839,0,0,0.06172839506172839,0,0)" xlink:href="#aG"/><use transform="matrix(0.06172839506172839,0,0,0.06172839506172839,14.814814814814813,0)" xlink:href="#bc"/><use transform="matrix(0.06172839506172839,0,0,0.06172839506172839,28.33333333333333,0)" xlink:href="#bf"/><use transform="matrix(0.06172839506172839,0,0,0.06172839506172839,40.679012345679006,0)" xlink:href="#be"/><use transform="matrix(0.06172839506172839,0,0,0.06172839506172839,46.85185185185185,0)" xlink:href="#bk"/><use transform="matrix(0.06172839506172839,0,0,0.06172839506172839,55.49382716049382,0)" xlink:href="#bl"/><use transform="matrix(0.06172839506172839,0,0,0.06172839506172839,69.01234567901234,0)" xlink:href="#bc"/><use transform="matrix(0.06172839506172839,0,0,0.06172839506172839,82.53086419753086,0)" xlink:href="#bm"/><use transform="matrix(0.06172839506172839,0,0,0.06172839506172839,102.28395061728395,0)" xlink:href="#bj"/><use transform="matrix(0.06172839506172839,0,0,0.06172839506172839,114.62962962962963,0)" xlink:href="#bc"/><use transform="matrix(0.06172839506172839,0,0,0.06172839506172839,128.14814814814815,0)" xlink:href="#bn"/><use transform="matrix(0.06172839506172839,0,0,0.06172839506172839,135.49382716049382,0)" xlink:href="#bo"/></g><linearGradient gradientUnits="userSpaceOnUse" id="m" x1="541.07" y1="-175.47" x2="826.5" y2="-175.47"><stop offset="0%" stop-color="#fff"/><stop offset="38.57%" stop-color="#fff"/><stop offset="100%" stop-color="#6db1ff"/></linearGradient><path fill="#3a414a" d="M24-248c120-7 223 5 221 122C244-46 201 0 124 0H24v-248zM76-40c74 7 117-18 117-86 0-67-45-88-117-82v168" id="bp"/><path fill="#3a414a" d="M24 0v-248h195v40H76v63h132v40H76v65h150V0H24" id="bq"/><path fill="#3a414a" d="M147 0H94L2-248h55l64 206c17-72 42-137 63-206h54" id="br"/><path fill="#3a414a" d="M-4 44V30h207v14H-4" id="bs"/><path fill="#3a414a" d="M182-130c37 4 62 22 62 59C244 23 116-4 24 0v-248c84 5 203-23 205 63 0 31-19 50-47 55zM76-148c40-3 101 13 101-30 0-44-60-28-101-31v61zm0 110c48-3 116 14 116-37 0-48-69-32-116-35v72" id="bt"/><path fill="#3a414a" d="M136-208V0H84v-208H4v-40h212v40h-80" id="bu"/><path fill="#3a414a" d="M240-174c0 40-23 61-54 70L253 0h-59l-57-94H76V0H24v-248c93 4 217-23 216 74zM76-134c48-2 112 12 112-38 0-48-66-32-112-35v73" id="bv"/><path fill="#3a414a" d="M199 0l-22-63H83L61 0H9l90-248h61L250 0h-51zm-33-102l-36-108c-10 38-24 72-36 108h72" id="bw"/><path fill="#3a414a" d="M175 0L67-191c6 58 2 128 3 191H24v-248h59L193-55c-6-58-2-129-3-193h46V0h-61" id="bx"/><path fill="#3a414a" d="M169-182c-1-43-94-46-97-3 18 66 151 10 154 114 3 95-165 93-204 36-6-8-10-19-12-30l50-8c3 46 112 56 116 5-17-69-150-10-154-114-4-87 153-88 188-35 5 8 8 18 10 28" id="by"/><path fill="#3a414a" d="M76-208v77h127v40H76V0H24v-248h183v40H76" id="bz"/><path fill="#3a414a" d="M140-251c80 0 125 45 125 126S219 4 139 4C58 4 15-44 15-125s44-126 125-126zm-1 214c52 0 73-35 73-88 0-50-21-86-72-86-52 0-73 35-73 86s22 88 72 88" id="bA"/><path fill="#3a414a" d="M230 0l2-204L168 0h-37L68-204 70 0H24v-248h70l56 185 57-185h69V0h-46" id="bB"/><g id="n"><use transform="matrix(0.055555555555555546,0,0,0.055555555555555546,0,0)" xlink:href="#bp"/><use transform="matrix(0.055555555555555546,0,0,0.055555555555555546,14.388888888888886,0)" xlink:href="#bq"/><use transform="matrix(0.055555555555555546,0,0,0.055555555555555546,27.722222222222214,0)" xlink:href="#br"/><use transform="matrix(0.055555555555555546,0,0,0.055555555555555546,41.05555555555554,0)" xlink:href="#bs"/><use transform="matrix(0.055555555555555546,0,0,0.055555555555555546,52.16666666666665,0)" xlink:href="#bp"/><use transform="matrix(0.055555555555555546,0,0,0.055555555555555546,66.55555555555554,0)" xlink:href="#bt"/><use transform="matrix(0.055555555555555546,0,0,0.055555555555555546,80.94444444444443,0)" xlink:href="#bu"/><use transform="matrix(0.055555555555555546,0,0,0.055555555555555546,93.11111111111109,0)" xlink:href="#bs"/><use transform="matrix(0.055555555555555546,0,0,0.055555555555555546,104.2222222222222,0)" xlink:href="#bu"/><use transform="matrix(0.055555555555555546,0,0,0.055555555555555546,116.38888888888887,0)" xlink:href="#bv"/><use transform="matrix(0.055555555555555546,0,0,0.055555555555555546,130.77777777777774,0)" xlink:href="#bw"/><use transform="matrix(0.055555555555555546,0,0,0.055555555555555546,145.16666666666663,0)" xlink:href="#bx"/><use transform="matrix(0.055555555555555546,0,0,0.055555555555555546,159.55555555555551,0)" xlink:href="#by"/><use transform="matrix(0.055555555555555546,0,0,0.055555555555555546,172.88888888888886,0)" xlink:href="#bz"/><use transform="matrix(0.055555555555555546,0,0,0.055555555555555546,185.05555555555551,0)" xlink:href="#bA"/><use transform="matrix(0.055555555555555546,0,0,0.055555555555555546,200.61111111111106,0)" xlink:href="#bv"/><use transform="matrix(0.055555555555555546,0,0,0.055555555555555546,214.99999999999994,0)" xlink:href="#bB"/><use transform="matrix(0.055555555555555546,0,0,0.055555555555555546,231.61111111111106,0)" xlink:href="#bs"/><use transform="matrix(0.055555555555555546,0,0,0.055555555555555546,242.72222222222217,0)" xlink:href="#bp"/><use transform="matrix(0.055555555555555546,0,0,0.055555555555555546,257.1111111111111,0)" xlink:href="#bt"/></g><linearGradient gradientUnits="userSpaceOnUse" id="o" x1="429.57" y1="-507.68" x2="523.23" y2="-507.68"><stop offset="0%" stop-color="#fff"/><stop offset="38.57%" stop-color="#fff"/><stop offset="100%" stop-color="#6db1ff"/></linearGradient><path fill="#3a414a" d="M275 0h-61l-44-196L126 0H64L0-248h53L97-49l45-199h58l43 199 44-199h52" id="bC"/><g id="p"><use transform="matrix(0.055555555555555546,0,0,0.055555555555555546,0,0)" xlink:href="#bv"/><use transform="matrix(0.055555555555555546,0,0,0.055555555555555546,14.388888888888886,0)" xlink:href="#bw"/><use transform="matrix(0.055555555555555546,0,0,0.055555555555555546,27.66666666666666,0)" xlink:href="#bC"/><use transform="matrix(0.055555555555555546,0,0,0.055555555555555546,46.499999999999986,0)" xlink:href="#bs"/><use transform="matrix(0.055555555555555546,0,0,0.055555555555555546,57.611111111111086,0)" xlink:href="#bp"/><use transform="matrix(0.055555555555555546,0,0,0.055555555555555546,71.99999999999997,0)" xlink:href="#bt"/></g><linearGradient gradientUnits="userSpaceOnUse" id="q" x1="625.8" y1="-604.2" x2="768.52" y2="-604.2"><stop offset="0%" stop-color="#fff"/><stop offset="38.57%" stop-color="#fff"/><stop offset="100%" stop-color="#6db1ff"/></linearGradient><path fill="#3a414a" d="M67-125c0 53 21 87 73 88 37 1 54-22 65-47l45 17C233-25 199 4 140 4 58 4 20-42 15-125 8-235 124-281 211-232c18 10 29 29 36 50l-46 12c-8-25-30-41-62-41-52 0-71 34-72 86" id="bD"/><g id="r"><use transform="matrix(0.055555555555555546,0,0,0.055555555555555546,0,0)" xlink:href="#bD"/><use transform="matrix(0.055555555555555546,0,0,0.055555555555555546,14.388888888888886,0)" xlink:href="#bA"/><use transform="matrix(0.055555555555555546,0,0,0.055555555555555546,29.94444444444444,0)" xlink:href="#bB"/><use transform="matrix(0.055555555555555546,0,0,0.055555555555555546,46.55555555555554,0)" xlink:href="#bB"/><use transform="matrix(0.055555555555555546,0,0,0.055555555555555546,63.16666666666666,0)" xlink:href="#bA"/><use transform="matrix(0.055555555555555546,0,0,0.055555555555555546,78.7222222222222,0)" xlink:href="#bx"/><use transform="matrix(0.055555555555555546,0,0,0.055555555555555546,93.11111111111109,0)" xlink:href="#bs"/><use transform="matrix(0.055555555555555546,0,0,0.055555555555555546,104.2222222222222,0)" xlink:href="#bp"/><use transform="matrix(0.055555555555555546,0,0,0.055555555555555546,118.61111111111109,0)" xlink:href="#bt"/></g><linearGradient gradientUnits="userSpaceOnUse" id="s" x1="567.82" y1="-507.68" x2="661.48" y2="-507.68"><stop offset="0%" stop-color="#fff"/><stop offset="38.57%" stop-color="#fff"/><stop offset="100%" stop-color="#6db1ff"/></linearGradient><path fill="#3a414a" d="M24 0v-248h52V0H24" id="bE"/><g id="t"><use transform="matrix(0.055555555555555546,0,0,0.055555555555555546,0,0)" xlink:href="#bE"/><use transform="matrix(0.055555555555555546,0,0,0.055555555555555546,5.5555555555555545,0)" xlink:href="#bx"/><use transform="matrix(0.055555555555555546,0,0,0.055555555555555546,19.94444444444444,0)" xlink:href="#bu"/><use transform="matrix(0.055555555555555546,0,0,0.055555555555555546,32.1111111111111,0)" xlink:href="#bs"/><use transform="matrix(0.055555555555555546,0,0,0.055555555555555546,43.22222222222221,0)" xlink:href="#bp"/><use transform="matrix(0.055555555555555546,0,0,0.055555555555555546,57.611111111111086,0)" xlink:href="#bt"/></g><linearGradient gradientUnits="userSpaceOnUse" id="u" x1="692.7" y1="-507.68" x2="786.36" y2="-507.68"><stop offset="0%" stop-color="#fff"/><stop offset="38.57%" stop-color="#fff"/><stop offset="100%" stop-color="#6db1ff"/></linearGradient><path fill="#3a414a" d="M238-95c0 69-44 99-111 99C63 4 22-25 22-93v-155h51v151c-1 38 19 59 55 60 90 1 49-130 58-211h52v153" id="bF"/><g id="v"><use transform="matrix(0.055555555555555546,0,0,0.055555555555555546,0,0)" xlink:href="#bD"/><use transform="matrix(0.055555555555555546,0,0,0.055555555555555546,14.388888888888886,0)" xlink:href="#bF"/><use transform="matrix(0.055555555555555546,0,0,0.055555555555555546,28.77777777777777,0)" xlink:href="#bv"/><use transform="matrix(0.055555555555555546,0,0,0.055555555555555546,43.16666666666666,0)" xlink:href="#bs"/><use transform="matrix(0.055555555555555546,0,0,0.055555555555555546,54.277777777777764,0)" xlink:href="#bp"/><use transform="matrix(0.055555555555555546,0,0,0.055555555555555546,68.66666666666666,0)" xlink:href="#bt"/></g><linearGradient gradientUnits="userSpaceOnUse" id="w" x1="817.58" y1="-507.68" x2="911.24" y2="-507.68"><stop offset="0%" stop-color="#fff"/><stop offset="38.57%" stop-color="#fff"/><stop offset="100%" stop-color="#6db1ff"/></linearGradient><g id="x"><use transform="matrix(0.055555555555555546,0,0,0.055555555555555546,0,0)" xlink:href="#bD"/><use transform="matrix(0.055555555555555546,0,0,0.055555555555555546,14.388888888888886,0)" xlink:href="#bA"/><use transform="matrix(0.055555555555555546,0,0,0.055555555555555546,29.94444444444444,0)" xlink:href="#bx"/><use transform="matrix(0.055555555555555546,0,0,0.055555555555555546,44.33333333333333,0)" xlink:href="#bs"/><use transform="matrix(0.055555555555555546,0,0,0.055555555555555546,55.444444444444436,0)" xlink:href="#bp"/><use transform="matrix(0.055555555555555546,0,0,0.055555555555555546,69.83333333333331,0)" xlink:href="#bt"/></g><linearGradient gradientUnits="userSpaceOnUse" id="y" x1="40.93" y1="-1161.95" x2="147.96" y2="-1161.95"><stop offset="0%" stop-color="#fff"/><stop offset="38.57%" stop-color="#fff"/><stop offset="100%" stop-color="#6db1ff"/></linearGradient><path fill="#3a414a" d="M185-189c-5-48-123-54-124 2 14 75 158 14 163 119 3 78-121 87-175 55-17-10-28-26-33-46l33-7c5 56 141 63 141-1 0-78-155-14-162-118-5-82 145-84 179-34 5 7 8 16 11 25" id="bG"/><path fill="#3a414a" d="M126-127c33 6 58 20 58 59 0 88-139 92-164 29-3-8-5-16-6-25l32-3c6 27 21 44 54 44 32 0 52-15 52-46 0-38-36-46-79-43v-28c39 1 72-4 72-42 0-27-17-43-46-43-28 0-47 15-49 41l-32-3c6-42 35-63 81-64 48-1 79 21 79 65 0 36-21 52-52 59" id="bH"/><g id="z"><use transform="matrix(0.06172839506172839,0,0,0.06172839506172839,0,0)" xlink:href="#bG"/><use transform="matrix(0.06172839506172839,0,0,0.06172839506172839,14.814814814814813,0)" xlink:href="#bH"/></g><path fill="#3a414a" d="M141-36C126-15 110 5 73 4 37 3 15-17 15-53c-1-64 63-63 125-63 3-35-9-54-41-54-24 1-41 7-42 31l-33-3c5-37 33-52 76-52 45 0 72 20 72 64v82c-1 20 7 32 28 27v20c-31 9-61-2-59-35zM48-53c0 20 12 33 32 33 41-3 63-29 60-74-43 2-92-5-92 41" id="bI"/><path fill="#3a414a" d="M117-194c89-4 53 116 60 194h-32v-121c0-31-8-49-39-48C34-167 62-67 57 0H25l-1-190h30c1 10-1 24 2 32 11-22 29-35 61-36" id="bJ"/><path fill="#3a414a" d="M85-194c31 0 48 13 60 33l-1-100h32l1 261h-30c-2-10 0-23-3-31C134-8 116 4 85 4 32 4 16-35 15-94c0-66 23-100 70-100zm9 24c-40 0-46 34-46 75 0 40 6 74 45 74 42 0 51-32 51-76 0-42-9-74-50-73" id="bK"/><g id="A"><use transform="matrix(0.06172839506172839,0,0,0.06172839506172839,0,0)" xlink:href="#bI"/><use transform="matrix(0.06172839506172839,0,0,0.06172839506172839,12.345679012345679,0)" xlink:href="#bJ"/><use transform="matrix(0.06172839506172839,0,0,0.06172839506172839,24.691358024691358,0)" xlink:href="#bK"/></g><path fill="#3a414a" d="M100-194c62-1 85 37 85 99 1 63-27 99-86 99S16-35 15-95c0-66 28-99 85-99zM99-20c44 1 53-31 53-75 0-43-8-75-51-75s-53 32-53 75 10 74 51 75" id="bL"/><path fill="#3a414a" d="M59-47c-2 24 18 29 38 22v24C64 9 27 4 27-40v-127H5v-23h24l9-43h21v43h35v23H59v120" id="bM"/><path fill="#3a414a" d="M106-169C34-169 62-67 57 0H25v-261h32l-1 103c12-21 28-36 61-36 89 0 53 116 60 194h-32v-121c2-32-8-49-39-48" id="bN"/><path fill="#3a414a" d="M100-194c63 0 86 42 84 106H49c0 40 14 67 53 68 26 1 43-12 49-29l28 8c-11 28-37 45-77 45C44 4 14-33 15-96c1-61 26-98 85-98zm52 81c6-60-76-77-97-28-3 7-6 17-6 28h103" id="bO"/><path fill="#3a414a" d="M114-163C36-179 61-72 57 0H25l-1-190h30c1 12-1 29 2 39 6-27 23-49 58-41v29" id="bP"/><g id="B"><use transform="matrix(0.06172839506172839,0,0,0.06172839506172839,0,0)" xlink:href="#bL"/><use transform="matrix(0.06172839506172839,0,0,0.06172839506172839,12.345679012345679,0)" xlink:href="#bM"/><use transform="matrix(0.06172839506172839,0,0,0.06172839506172839,18.51851851851852,0)" xlink:href="#bN"/><use transform="matrix(0.06172839506172839,0,0,0.06172839506172839,30.864197530864196,0)" xlink:href="#bO"/><use transform="matrix(0.06172839506172839,0,0,0.06172839506172839,43.20987654320987,0)" xlink:href="#bP"/></g><path fill="#3a414a" d="M135-143c-3-34-86-38-87 0 15 53 115 12 119 90S17 21 10-45l28-5c4 36 97 45 98 0-10-56-113-15-118-90-4-57 82-63 122-42 12 7 21 19 24 35" id="bQ"/><path fill="#3a414a" d="M84 4C-5 8 30-112 23-190h32v120c0 31 7 50 39 49 72-2 45-101 50-169h31l1 190h-30c-1-10 1-25-2-33-11 22-28 36-60 37" id="bR"/><path fill="#3a414a" d="M96-169c-40 0-48 33-48 73s9 75 48 75c24 0 41-14 43-38l32 2c-6 37-31 61-74 61-59 0-76-41-82-99-10-93 101-131 147-64 4 7 5 14 7 22l-32 3c-4-21-16-35-41-35" id="bS"/><g id="C"><use transform="matrix(0.06172839506172839,0,0,0.06172839506172839,0,0)" xlink:href="#bQ"/><use transform="matrix(0.06172839506172839,0,0,0.06172839506172839,11.11111111111111,0)" xlink:href="#bL"/><use transform="matrix(0.06172839506172839,0,0,0.06172839506172839,23.45679012345679,0)" xlink:href="#bR"/><use transform="matrix(0.06172839506172839,0,0,0.06172839506172839,35.80246913580247,0)" xlink:href="#bP"/><use transform="matrix(0.06172839506172839,0,0,0.06172839506172839,43.148148148148145,0)" xlink:href="#bS"/><use transform="matrix(0.06172839506172839,0,0,0.06172839506172839,54.25925925925925,0)" xlink:href="#bO"/><use transform="matrix(0.06172839506172839,0,0,0.06172839506172839,66.60493827160494,0)" xlink:href="#bQ"/></g><path fill="#333" d="M88-194c31-1 46 15 58 34l-1-101h50l1 261h-48c-2-10 0-23-3-31C134-8 116 4 84 4 32 4 16-41 15-95c0-56 19-97 73-99zm17 164c33 0 40-30 41-66 1-37-9-64-41-64s-38 30-39 65c0 43 13 65 39 65" id="bT"/><path fill="#333" d="M135-194c52 0 70 43 70 98 0 56-19 99-73 100-30 1-46-15-58-35L72 0H24l1-261h50v104c11-23 29-37 60-37zM114-30c31 0 40-27 40-66 0-37-7-63-39-63s-41 28-41 65c0 36 8 64 40 64" id="bU"/><g id="D"><use transform="matrix(0.04938271604938272,0,0,0.04938271604938272,0,0)" xlink:href="#bT"/><use transform="matrix(0.04938271604938272,0,0,0.04938271604938272,10.814814814814815,0)" xlink:href="#bU"/><use transform="matrix(0.04938271604938272,0,0,0.04938271604938272,21.62962962962963,0)" xlink:href="#aS"/></g><path fill="#333" d="M25 0v-261h50V0H25" id="bV"/><path fill="#333" d="M135-194c87-1 58 113 63 194h-50c-7-57 23-157-34-157-59 0-34 97-39 157H25l-1-190h47c2 12-1 28 3 38 12-26 28-41 61-42" id="bW"/><path fill="#333" d="M137-138c1-29-70-34-71-4 15 46 118 7 119 86 1 83-164 76-172 9l43-7c4 19 20 25 44 25 33 8 57-30 24-41C81-84 22-81 20-136c-2-80 154-74 161-7" id="bX"/><g id="E"><use transform="matrix(0.04938271604938272,0,0,0.04938271604938272,0,0)" xlink:href="#aV"/><use transform="matrix(0.04938271604938272,0,0,0.04938271604938272,10.814814814814815,0)" xlink:href="#aZ"/><use transform="matrix(0.04938271604938272,0,0,0.04938271604938272,15.753086419753087,0)" xlink:href="#aV"/><use transform="matrix(0.04938271604938272,0,0,0.04938271604938272,26.567901234567902,0)" xlink:href="#aT"/><use transform="matrix(0.04938271604938272,0,0,0.04938271604938272,36.44444444444444,0)" xlink:href="#bV"/><use transform="matrix(0.04938271604938272,0,0,0.04938271604938272,41.382716049382715,0)" xlink:href="#aZ"/><use transform="matrix(0.04938271604938272,0,0,0.04938271604938272,46.32098765432099,0)" xlink:href="#bW"/><use transform="matrix(0.04938271604938272,0,0,0.04938271604938272,57.135802469135804,0)" xlink:href="#aT"/><use transform="matrix(0.04938271604938272,0,0,0.04938271604938272,67.01234567901236,0)" xlink:href="#bX"/></g><path fill="#333" d="M24 0v-248h52V0H24" id="bY"/><path fill="#333" d="M110-194c64 0 96 36 96 99 0 64-35 99-97 99-61 0-95-36-95-99 0-62 34-99 96-99zm-1 164c35 0 45-28 45-65 0-40-10-65-43-65-34 0-45 26-45 65 0 36 10 65 43 65" id="bZ"/><g id="F"><use transform="matrix(0.07407407407407408,0,0,0.07407407407407408,0,0)" xlink:href="#bY"/><use transform="matrix(0.07407407407407408,0,0,0.07407407407407408,7.407407407407408,0)" xlink:href="#bW"/><use transform="matrix(0.07407407407407408,0,0,0.07407407407407408,23.629629629629633,0)" xlink:href="#aQ"/><use transform="matrix(0.07407407407407408,0,0,0.07407407407407408,39.85185185185187,0)" xlink:href="#aT"/><use transform="matrix(0.07407407407407408,0,0,0.07407407407407408,54.666666666666686,0)" xlink:href="#bX"/><use transform="matrix(0.07407407407407408,0,0,0.07407407407407408,69.4814814814815,0)" xlink:href="#aS"/><use transform="matrix(0.07407407407407408,0,0,0.07407407407407408,78.2962962962963,0)" xlink:href="#aZ"/><use transform="matrix(0.07407407407407408,0,0,0.07407407407407408,85.70370370370371,0)" xlink:href="#bZ"/><use transform="matrix(0.07407407407407408,0,0,0.07407407407407408,101.92592592592594,0)" xlink:href="#bW"/></g><linearGradient gradientUnits="userSpaceOnUse" id="G" x1="416.19" y1="-1217.54" x2="509.85" y2="-1217.54"><stop offset="0%" stop-color="#fff"/><stop offset="38.57%" stop-color="#fff"/><stop offset="100%" stop-color="#6db1ff"/></linearGradient><linearGradient gradientUnits="userSpaceOnUse" id="H" x1="621.34" y1="-1314.06" x2="764.06" y2="-1314.06"><stop offset="0%" stop-color="#fff"/><stop offset="38.57%" stop-color="#fff"/><stop offset="100%" stop-color="#6db1ff"/></linearGradient><linearGradient gradientUnits="userSpaceOnUse" id="I" x1="563.36" y1="-1217.54" x2="657.02" y2="-1217.54"><stop offset="0%" stop-color="#fff"/><stop offset="38.57%" stop-color="#fff"/><stop offset="100%" stop-color="#6db1ff"/></linearGradient><linearGradient gradientUnits="userSpaceOnUse" id="J" x1="688.24" y1="-1217.54" x2="781.9" y2="-1217.54"><stop offset="0%" stop-color="#fff"/><stop offset="38.57%" stop-color="#fff"/><stop offset="100%" stop-color="#6db1ff"/></linearGradient><linearGradient gradientUnits="userSpaceOnUse" id="K" x1="813.12" y1="-1217.54" x2="906.78" y2="-1217.54"><stop offset="0%" stop-color="#fff"/><stop offset="38.57%" stop-color="#fff"/><stop offset="100%" stop-color="#6db1ff"/></linearGradient><linearGradient gradientUnits="userSpaceOnUse" id="L" x1="416.19" y1="-862.61" x2="509.85" y2="-862.61"><stop offset="0%" stop-color="#fff"/><stop offset="38.57%" stop-color="#fff"/><stop offset="100%" stop-color="#6db1ff"/></linearGradient><linearGradient gradientUnits="userSpaceOnUse" id="M" x1="621.34" y1="-959.13" x2="764.06" y2="-959.13"><stop offset="0%" stop-color="#fff"/><stop offset="38.57%" stop-color="#fff"/><stop offset="100%" stop-color="#6db1ff"/></linearGradient><linearGradient gradientUnits="userSpaceOnUse" id="N" x1="563.36" y1="-862.61" x2="657.02" y2="-862.61"><stop offset="0%" stop-color="#fff"/><stop offset="38.57%" stop-color="#fff"/><stop offset="100%" stop-color="#6db1ff"/></linearGradient><linearGradient gradientUnits="userSpaceOnUse" id="O" x1="688.24" y1="-862.61" x2="781.9" y2="-862.61"><stop offset="0%" stop-color="#fff"/><stop offset="38.57%" stop-color="#fff"/><stop offset="100%" stop-color="#6db1ff"/></linearGradient><linearGradient gradientUnits="userSpaceOnUse" id="P" x1="813.12" y1="-862.61" x2="906.78" y2="-862.61"><stop offset="0%" stop-color="#fff"/><stop offset="38.57%" stop-color="#fff"/><stop offset="100%" stop-color="#6db1ff"/></linearGradient><path fill="#333" d="M190-63c-7 42-38 67-86 67-59 0-84-38-90-98-12-110 154-137 174-36l-49 2c-2-19-15-32-35-32-30 0-35 28-38 64-6 74 65 87 74 30" id="ca"/><g id="Q"><use transform="matrix(0.04938271604938272,0,0,0.04938271604938272,0,0)" xlink:href="#ca"/><use transform="matrix(0.04938271604938272,0,0,0.04938271604938272,9.876543209876544,0)" xlink:href="#bZ"/><use transform="matrix(0.04938271604938272,0,0,0.04938271604938272,20.69135802469136,0)" xlink:href="#bT"/><use transform="matrix(0.04938271604938272,0,0,0.04938271604938272,31.506172839506174,0)" xlink:href="#aT"/></g><g id="R"><use transform="matrix(0.04938271604938272,0,0,0.04938271604938272,0,0)" xlink:href="#aW"/><use transform="matrix(0.04938271604938272,0,0,0.04938271604938272,6.913580246913581,0)" xlink:href="#aT"/><use transform="matrix(0.04938271604938272,0,0,0.04938271604938272,16.790123456790127,0)" xlink:href="#bV"/><use transform="matrix(0.04938271604938272,0,0,0.04938271604938272,21.7283950617284,0)" xlink:href="#aT"/><use transform="matrix(0.04938271604938272,0,0,0.04938271604938272,31.60493827160494,0)" xlink:href="#aR"/><use transform="matrix(0.04938271604938272,0,0,0.04938271604938272,41.48148148148149,0)" xlink:href="#bX"/><use transform="matrix(0.04938271604938272,0,0,0.04938271604938272,51.35802469135803,0)" xlink:href="#aT"/></g><g id="S"><use transform="matrix(0.04938271604938272,0,0,0.04938271604938272,0,0)" xlink:href="#aQ"/><use transform="matrix(0.04938271604938272,0,0,0.04938271604938272,10.814814814814815,0)" xlink:href="#aR"/><use transform="matrix(0.04938271604938272,0,0,0.04938271604938272,20.69135802469136,0)" xlink:href="#aS"/><use transform="matrix(0.04938271604938272,0,0,0.04938271604938272,26.567901234567902,0)" xlink:href="#aT"/><use transform="matrix(0.04938271604938272,0,0,0.04938271604938272,36.44444444444445,0)" xlink:href="#aU"/><use transform="matrix(0.04938271604938272,0,0,0.04938271604938272,46.320987654320994,0)" xlink:href="#aT"/><use transform="matrix(0.04938271604938272,0,0,0.04938271604938272,56.19753086419754,0)" xlink:href="#aT"/><use transform="matrix(0.04938271604938272,0,0,0.04938271604938272,66.07407407407408,0)" xlink:href="#aV"/><use transform="matrix(0.04938271604938272,0,0,0.04938271604938272,76.88888888888889,0)" xlink:href="#aT"/><use transform="matrix(0.04938271604938272,0,0,0.04938271604938272,86.76543209876543,0)" xlink:href="#aW"/><use transform="matrix(0.04938271604938272,0,0,0.04938271604938272,93.67901234567901,0)" xlink:href="#aX"/></g><path fill="#333" d="M220-157c-53 9-28 100-34 157h-49v-107c1-27-5-49-29-50C55-147 81-57 75 0H25l-1-190h47c2 12-1 28 3 38 10-53 101-56 108 0 13-22 24-43 59-42 82 1 51 116 57 194h-49v-107c-1-25-5-48-29-50" id="cb"/><g id="T"><use transform="matrix(0.04938271604938272,0,0,0.04938271604938272,0,0)" xlink:href="#aS"/><use transform="matrix(0.04938271604938272,0,0,0.04938271604938272,5.8765432098765435,0)" xlink:href="#aT"/><use transform="matrix(0.04938271604938272,0,0,0.04938271604938272,15.753086419753087,0)" xlink:href="#aR"/><use transform="matrix(0.04938271604938272,0,0,0.04938271604938272,25.629629629629633,0)" xlink:href="#cb"/></g><g id="U"><use transform="matrix(0.04938271604938272,0,0,0.04938271604938272,0,0)" xlink:href="#bV"/><use transform="matrix(0.04938271604938272,0,0,0.04938271604938272,4.938271604938272,0)" xlink:href="#aT"/><use transform="matrix(0.04938271604938272,0,0,0.04938271604938272,14.814814814814817,0)" xlink:href="#aR"/><use transform="matrix(0.04938271604938272,0,0,0.04938271604938272,24.69135802469136,0)" xlink:href="#bT"/></g><g id="V"><use transform="matrix(0.04938271604938272,0,0,0.04938271604938272,0,0)" xlink:href="#ca"/><use transform="matrix(0.04938271604938272,0,0,0.04938271604938272,9.876543209876544,0)" xlink:href="#bZ"/><use transform="matrix(0.04938271604938272,0,0,0.04938271604938272,20.69135802469136,0)" xlink:href="#bT"/><use transform="matrix(0.04938271604938272,0,0,0.04938271604938272,31.506172839506174,0)" xlink:href="#aT"/></g><path fill="#333" d="M136-208V0H84v-208H4v-40h212v40h-80" id="cc"/><g id="W"><use transform="matrix(0.04938271604938272,0,0,0.04938271604938272,0,0)" xlink:href="#bY"/><use transform="matrix(0.04938271604938272,0,0,0.04938271604938272,4.938271604938272,0)" xlink:href="#cc"/></g><g id="X"><use transform="matrix(0.04938271604938272,0,0,0.04938271604938272,0,0)" xlink:href="#aW"/><use transform="matrix(0.04938271604938272,0,0,0.04938271604938272,6.913580246913581,0)" xlink:href="#aT"/><use transform="matrix(0.04938271604938272,0,0,0.04938271604938272,16.790123456790127,0)" xlink:href="#bV"/><use transform="matrix(0.04938271604938272,0,0,0.04938271604938272,21.7283950617284,0)" xlink:href="#aT"/><use transform="matrix(0.04938271604938272,0,0,0.04938271604938272,31.60493827160494,0)" xlink:href="#aR"/><use transform="matrix(0.04938271604938272,0,0,0.04938271604938272,41.48148148148149,0)" xlink:href="#bX"/><use transform="matrix(0.04938271604938272,0,0,0.04938271604938272,51.35802469135803,0)" xlink:href="#aT"/></g><g id="Y"><use transform="matrix(0.04938271604938272,0,0,0.04938271604938272,0,0)" xlink:href="#cb"/><use transform="matrix(0.04938271604938272,0,0,0.04938271604938272,15.80246913580247,0)" xlink:href="#aR"/><use transform="matrix(0.04938271604938272,0,0,0.04938271604938272,25.679012345679016,0)" xlink:href="#bW"/><use transform="matrix(0.04938271604938272,0,0,0.04938271604938272,36.49382716049383,0)" xlink:href="#aR"/><use transform="matrix(0.04938271604938272,0,0,0.04938271604938272,46.370370370370374,0)" xlink:href="#aQ"/><use transform="matrix(0.04938271604938272,0,0,0.04938271604938272,57.18518518518519,0)" xlink:href="#aT"/><use transform="matrix(0.04938271604938272,0,0,0.04938271604938272,67.06172839506173,0)" xlink:href="#cb"/><use transform="matrix(0.04938271604938272,0,0,0.04938271604938272,82.8641975308642,0)" xlink:href="#aT"/><use transform="matrix(0.04938271604938272,0,0,0.04938271604938272,92.74074074074075,0)" xlink:href="#bW"/><use transform="matrix(0.04938271604938272,0,0,0.04938271604938272,103.55555555555557,0)" xlink:href="#aS"/></g><g id="Z"><use transform="matrix(0.04938271604938272,0,0,0.04938271604938272,0,0)" xlink:href="#aR"/><use transform="matrix(0.04938271604938272,0,0,0.04938271604938272,9.876543209876544,0)" xlink:href="#aV"/><use transform="matrix(0.04938271604938272,0,0,0.04938271604938272,20.69135802469136,0)" xlink:href="#aV"/><use transform="matrix(0.04938271604938272,0,0,0.04938271604938272,31.506172839506174,0)" xlink:href="#aW"/><use transform="matrix(0.04938271604938272,0,0,0.04938271604938272,38.41975308641976,0)" xlink:href="#bZ"/><use transform="matrix(0.04938271604938272,0,0,0.04938271604938272,49.23456790123458,0)" xlink:href="#aY"/><use transform="matrix(0.04938271604938272,0,0,0.04938271604938272,59.111111111111114,0)" xlink:href="#aR"/><use transform="matrix(0.04938271604938272,0,0,0.04938271604938272,68.98765432098767,0)" xlink:href="#bV"/></g><g id="aa"><use transform="matrix(0.08641975308641976,0,0,0.08641975308641976,0,0)" xlink:href="#aE"/><use transform="matrix(0.08641975308641976,0,0,0.08641975308641976,20.740740740740744,0)" xlink:href="#az"/><use transform="matrix(0.08641975308641976,0,0,0.08641975308641976,43.12345679012346,0)" xlink:href="#aG"/><use transform="matrix(0.08641975308641976,0,0,0.08641975308641976,63.8641975308642,0)" xlink:href="#aE"/><use transform="matrix(0.08641975308641976,0,0,0.08641975308641976,84.60493827160495,0)" xlink:href="#az"/><use transform="matrix(0.08641975308641976,0,0,0.08641975308641976,106.98765432098766,0)" xlink:href="#ay"/><use transform="matrix(0.08641975308641976,0,0,0.08641975308641976,131.18518518518522,0)" xlink:href="#aF"/></g><path fill="#fff" d="M76-208v77h127v40H76V0H24v-248h183v40H76" id="cd"/><path fill="#fff" d="M195 0l-88-114-31 24V0H24v-248h52v113l112-113h60L142-143 257 0h-62" id="ce"/><g id="ab"><use transform="matrix(0.08641975308641976,0,0,0.08641975308641976,0,0)" xlink:href="#cd"/><use transform="matrix(0.08641975308641976,0,0,0.08641975308641976,18.925925925925927,0)" xlink:href="#az"/><use transform="matrix(0.08641975308641976,0,0,0.08641975308641976,41.308641975308646,0)" xlink:href="#aD"/><use transform="matrix(0.08641975308641976,0,0,0.08641975308641976,63.69135802469137,0)" xlink:href="#ax"/><use transform="matrix(0.08641975308641976,0,0,0.08641975308641976,86.07407407407409,0)" xlink:href="#ce"/><use transform="matrix(0.08641975308641976,0,0,0.08641975308641976,108.45679012345683,0)" xlink:href="#aG"/><use transform="matrix(0.08641975308641976,0,0,0.08641975308641976,129.19753086419755,0)" xlink:href="#ax"/></g><linearGradient gradientUnits="userSpaceOnUse" id="ac" x1="-812.4" y1="-175.47" x2="-526.96" y2="-175.47"><stop offset="0%" stop-color="#fff"/><stop offset="38.57%" stop-color="#fff"/><stop offset="100%" stop-color="#6db1ff"/></linearGradient><linearGradient gradientUnits="userSpaceOnUse" id="ad" x1="-923.89" y1="-507.68" x2="-830.24" y2="-507.68"><stop offset="0%" stop-color="#fff"/><stop offset="38.57%" stop-color="#fff"/><stop offset="100%" stop-color="#6db1ff"/></linearGradient><linearGradient gradientUnits="userSpaceOnUse" id="ae" x1="-727.66" y1="-604.2" x2="-584.94" y2="-604.2"><stop offset="0%" stop-color="#fff"/><stop offset="38.57%" stop-color="#fff"/><stop offset="100%" stop-color="#6db1ff"/></linearGradient><linearGradient gradientUnits="userSpaceOnUse" id="af" x1="-785.64" y1="-507.68" x2="-691.98" y2="-507.68"><stop offset="0%" stop-color="#fff"/><stop offset="38.57%" stop-color="#fff"/><stop offset="100%" stop-color="#6db1ff"/></linearGradient><linearGradient gradientUnits="userSpaceOnUse" id="ag" x1="-660.76" y1="-507.68" x2="-567.1" y2="-507.68"><stop offset="0%" stop-color="#fff"/><stop offset="38.57%" stop-color="#fff"/><stop offset="100%" stop-color="#6db1ff"/></linearGradient><linearGradient gradientUnits="userSpaceOnUse" id="ah" x1="-535.88" y1="-507.68" x2="-442.22" y2="-507.68"><stop offset="0%" stop-color="#fff"/><stop offset="38.57%" stop-color="#fff"/><stop offset="100%" stop-color="#6db1ff"/></linearGradient><linearGradient gradientUnits="userSpaceOnUse" id="ai" x1="-1312.54" y1="-1196.77" x2="-1205.5" y2="-1196.77"><stop offset="0%" stop-color="#fff"/><stop offset="38.57%" stop-color="#fff"/><stop offset="100%" stop-color="#6db1ff"/></linearGradient><linearGradient gradientUnits="userSpaceOnUse" id="aj" x1="-937.27" y1="-1217.54" x2="-843.62" y2="-1217.54"><stop offset="0%" stop-color="#fff"/><stop offset="38.57%" stop-color="#fff"/><stop offset="100%" stop-color="#6db1ff"/></linearGradient><linearGradient gradientUnits="userSpaceOnUse" id="ak" x1="-732.12" y1="-1314.06" x2="-589.4" y2="-1314.06"><stop offset="0%" stop-color="#fff"/><stop offset="38.57%" stop-color="#fff"/><stop offset="100%" stop-color="#6db1ff"/></linearGradient><linearGradient gradientUnits="userSpaceOnUse" id="al" x1="-790.1" y1="-1217.54" x2="-696.44" y2="-1217.54"><stop offset="0%" stop-color="#fff"/><stop offset="38.57%" stop-color="#fff"/><stop offset="100%" stop-color="#6db1ff"/></linearGradient><linearGradient gradientUnits="userSpaceOnUse" id="am" x1="-665.22" y1="-1217.54" x2="-571.56" y2="-1217.54"><stop offset="0%" stop-color="#fff"/><stop offset="38.57%" stop-color="#fff"/><stop offset="100%" stop-color="#6db1ff"/></linearGradient><linearGradient gradientUnits="userSpaceOnUse" id="an" x1="-540.34" y1="-1217.54" x2="-446.68" y2="-1217.54"><stop offset="0%" stop-color="#fff"/><stop offset="38.57%" stop-color="#fff"/><stop offset="100%" stop-color="#6db1ff"/></linearGradient><linearGradient gradientUnits="userSpaceOnUse" id="ao" x1="-937.27" y1="-862.61" x2="-843.62" y2="-862.61"><stop offset="0%" stop-color="#fff"/><stop offset="38.57%" stop-color="#fff"/><stop offset="100%" stop-color="#6db1ff"/></linearGradient><linearGradient gradientUnits="userSpaceOnUse" id="ap" x1="-732.12" y1="-959.13" x2="-589.4" y2="-959.13"><stop offset="0%" stop-color="#fff"/><stop offset="38.57%" stop-color="#fff"/><stop offset="100%" stop-color="#6db1ff"/></linearGradient><linearGradient gradientUnits="userSpaceOnUse" id="aq" x1="-790.1" y1="-862.61" x2="-696.44" y2="-862.61"><stop offset="0%" stop-color="#fff"/><stop offset="38.57%" stop-color="#fff"/><stop offset="100%" stop-color="#6db1ff"/></linearGradient><linearGradient gradientUnits="userSpaceOnUse" id="ar" x1="-665.22" y1="-862.61" x2="-571.56" y2="-862.61"><stop offset="0%" stop-color="#fff"/><stop offset="38.57%" stop-color="#fff"/><stop offset="100%" stop-color="#6db1ff"/></linearGradient><linearGradient gradientUnits="userSpaceOnUse" id="as" x1="-540.34" y1="-862.61" x2="-446.68" y2="-862.61"><stop offset="0%" stop-color="#fff"/><stop offset="38.57%" stop-color="#fff"/><stop offset="100%" stop-color="#6db1ff"/></linearGradient><path fill="#3a414a" d="M190 0L58-211 59 0H30v-248h39L202-35l-2-213h31V0h-41" id="cf"/><g id="at"><use transform="matrix(0.3703703703703704,0,0,0.3703703703703704,0,0)" xlink:href="#cf"/><use transform="matrix(0.3703703703703704,0,0,0.3703703703703704,95.92592592592594,0)" xlink:href="#bO"/><use transform="matrix(0.3703703703703704,0,0,0.3703703703703704,170,0)" xlink:href="#bI"/><use transform="matrix(0.3703703703703704,0,0,0.3703703703703704,244.0740740740741,0)" xlink:href="#bP"/></g><path fill="#3a414a" d="M63-220v92h138v28H63V0H30v-248h175v28H63" id="cg"/><g id="au"><use transform="matrix(0.3703703703703704,0,0,0.3703703703703704,0,0)" xlink:href="#cg"/><use transform="matrix(0.3703703703703704,0,0,0.3703703703703704,81.11111111111111,0)" xlink:href="#bR"/><use transform="matrix(0.3703703703703704,0,0,0.3703703703703704,155.1851851851852,0)" xlink:href="#bM"/><use transform="matrix(0.3703703703703704,0,0,0.3703703703703704,192.22222222222223,0)" xlink:href="#bR"/><use transform="matrix(0.3703703703703704,0,0,0.3703703703703704,266.2962962962963,0)" xlink:href="#bP"/><use transform="matrix(0.3703703703703704,0,0,0.3703703703703704,310.3703703703704,0)" xlink:href="#bO"/></g><g id="av"><use transform="matrix(0.3703703703703704,0,0,0.3703703703703704,0,0)" xlink:href="#bG"/><use transform="matrix(0.3703703703703704,0,0,0.3703703703703704,88.8888888888889,0)" xlink:href="#bM"/><use transform="matrix(0.3703703703703704,0,0,0.3703703703703704,125.92592592592594,0)" xlink:href="#bI"/><use transform="matrix(0.3703703703703704,0,0,0.3703703703703704,200.00000000000003,0)" xlink:href="#bM"/><use transform="matrix(0.3703703703703704,0,0,0.3703703703703704,237.037037037037,0)" xlink:href="#bO"/></g><g id="aw"><use transform="matrix(0.3703703703703704,0,0,0.3703703703703704,0,0)" xlink:href="#cg"/><use transform="matrix(0.3703703703703704,0,0,0.3703703703703704,81.11111111111111,0)" xlink:href="#bR"/><use transform="matrix(0.3703703703703704,0,0,0.3703703703703704,155.1851851851852,0)" xlink:href="#bM"/><use transform="matrix(0.3703703703703704,0,0,0.3703703703703704,192.22222222222223,0)" xlink:href="#bR"/><use transform="matrix(0.3703703703703704,0,0,0.3703703703703704,266.2962962962963,0)" xlink:href="#bP"/><use transform="matrix(0.3703703703703704,0,0,0.3703703703703704,310.3703703703704,0)" xlink:href="#bO"/></g></defs></g></svg>